<svg width="32" height="32" viewBox="0 0 32 32" fill="none" xmlns="http://www.w3.org/2000/svg">
<g clip-path="url(#clip0_787_2528)">
<path d="M32.0001 16.098C32.0001 7.20599 24.8361 -0.00201416 16.0001 -0.00201416C7.16009 -1.41601e-05 -0.00390625 7.20599 -0.00390625 16.1C-0.00390625 24.134 5.84809 30.794 13.4961 32.002V20.752H9.43609V16.1H13.5001V12.55C13.5001 8.51599 15.8901 6.28799 19.5441 6.28799C21.2961 6.28799 23.1261 6.60199 23.1261 6.60199V10.562H21.1081C19.1221 10.562 18.5021 11.804 18.5021 13.078V16.098H22.9381L22.2301 20.75H18.5001V32C26.1481 30.792 32.0001 24.132 32.0001 16.098Z" fill="#5996EC"/>
</g>
<defs>
<clipPath id="clip0_787_2528">
<rect width="32" height="32" fill="white"/>
</clipPath>
</defs>
</svg>
