<svg width="466" height="376" viewBox="0 0 466 376" fill="none" xmlns="http://www.w3.org/2000/svg">
<g clip-path="url(#clip0_1308_1594)">
<path opacity="0.1" d="M239.713 376.005C356.019 376.005 450.303 291.833 450.303 188.002C450.303 84.1715 356.019 6.10352e-05 239.713 6.10352e-05C123.408 6.10352e-05 29.123 84.1715 29.123 188.002C29.123 291.833 123.408 376.005 239.713 376.005Z" fill="#5996EC"/>
<path opacity="0.1" d="M77.6486 296.21C120.533 296.21 155.297 290.82 155.297 284.171C155.297 277.522 120.533 272.132 77.6486 272.132C34.7645 272.132 0 277.522 0 284.171C0 290.82 34.7645 296.21 77.6486 296.21Z" fill="#5996EC"/>
<path opacity="0.1" d="M114.969 353.566C131.649 353.566 145.171 350.771 145.171 347.325C145.171 343.878 131.649 341.084 114.969 341.084C98.2893 341.084 84.7676 343.878 84.7676 347.325C84.7676 350.771 98.2893 353.566 114.969 353.566Z" fill="#5996EC"/>
<path opacity="0.1" d="M321.338 329.555C338.018 329.555 351.54 326.761 351.54 323.314C351.54 319.867 338.018 317.073 321.338 317.073C304.658 317.073 291.137 319.867 291.137 323.314C291.137 326.761 304.658 329.555 321.338 329.555Z" fill="#5996EC"/>
<path opacity="0.1" d="M218.856 324.317C245.98 324.317 267.969 320.59 267.969 315.994C267.969 311.398 245.98 307.671 218.856 307.671C191.732 307.671 169.743 311.398 169.743 315.994C169.743 320.59 191.732 324.317 218.856 324.317Z" fill="#5996EC"/>
<path opacity="0.1" d="M363.567 290.845C420.142 290.845 466.005 283.66 466.005 274.796C466.005 265.932 420.142 258.747 363.567 258.747C306.993 258.747 261.13 265.932 261.13 274.796C261.13 283.66 306.993 290.845 363.567 290.845Z" fill="#5996EC"/>
<path d="M21.2313 246.785C18.9303 251.262 17.8556 256.27 18.1164 261.298C18.3773 266.326 19.9645 271.195 22.7166 275.41C23.6195 276.765 24.4501 277.741 25.1138 277.998C28.2964 279.249 34.6709 282.324 34.6709 282.324L50.02 276.291C50.02 276.291 52.512 263.105 54.8685 251.784C56.4757 244.062 58.0286 237.211 58.6652 236.01C60.2543 233.052 58.6652 200.85 58.6652 200.85C58.6652 200.85 43.316 199.82 39.095 211.656L37.2486 215.269L21.2313 246.785Z" fill="#A8A8A8"/>
<path opacity="0.1" d="M41.6102 250.343C50.9416 261.041 54.8782 251.788 54.8782 251.788C56.4853 244.066 58.0383 237.216 58.6748 236.014C60.2639 233.057 58.6748 200.854 58.6748 200.854C58.6748 200.854 43.3257 199.825 39.1047 211.661L37.2583 215.273C36.0755 224.743 34.9062 242.644 41.6102 250.343Z" fill="white"/>
<path d="M43.6592 280.161L97.8326 273.902L107.498 210.283L100.189 193.76C97.1013 186.723 92.8254 180.271 87.5487 174.685C83.8694 170.806 79.4227 167.076 74.7457 165.202C74.1066 164.944 73.454 164.721 72.791 164.534C72.0287 164.302 71.2225 164.254 70.4381 164.393C69.6536 164.531 68.913 164.854 68.2765 165.333C61.5951 170.07 59.207 190.211 58.435 199.906C58.1174 203.89 57.5793 207.854 56.8233 211.778L43.6592 280.161Z" fill="#A8A8A8"/>
<path opacity="0.1" d="M79.7257 209.597L68.4396 237.369C74.3535 233.043 83.1161 209.484 83.1161 209.484L90.9667 236.344L84.7097 208.034C85.6257 201.887 85.892 195.66 85.5042 189.456C85.0077 182.349 78.3398 170.942 74.7192 165.197C74.0801 164.94 73.4276 164.717 72.7645 164.529C72.0022 164.298 71.196 164.249 70.4116 164.388C69.6271 164.527 68.8865 164.849 68.25 165.328C71.0941 171.041 78.2044 185.324 80.3713 189.569C83.1206 194.916 79.7257 209.597 79.7257 209.597Z" fill="white"/>
<path d="M88.9395 282.324H118.333C119.542 282.324 120.739 282.079 121.85 281.602C122.961 281.125 123.964 280.427 124.797 279.551C125.63 278.674 126.276 277.638 126.696 276.504C127.116 275.369 127.301 274.162 127.24 272.954C126.59 260.346 124.942 237.866 121.024 223.596C118.906 215.896 116.446 211.855 114.189 209.863C113.13 208.842 111.764 208.199 110.302 208.034C109.193 207.939 108.083 208.208 107.142 208.802C101.684 214.036 95.3093 241.578 95.3093 241.578L88.9395 282.324Z" fill="#A8A8A8"/>
<path opacity="0.1" d="M116.075 257.898C117.285 261.253 117.764 265.123 116.075 268.894L109.525 272.132C109.525 272.132 91.9184 264.667 94.0583 249.368C94.0583 249.368 94.6361 246.207 100.699 246.45C104.109 246.615 107.392 247.792 110.131 249.831C112.869 251.87 114.939 254.678 116.075 257.898Z" fill="white"/>
<path opacity="0.1" d="M109.078 217.68C108.875 212.315 111.787 210.455 114.193 209.863C113.135 208.842 111.768 208.199 110.306 208.034C108.632 209.436 107.444 211.334 106.916 213.453L100.776 243.389C100.776 243.389 109.422 226.671 109.078 217.68Z" fill="white"/>
<path d="M81.2064 241.352L95.761 261.267L98.2846 277.704L88.9306 282.324L75.4459 285.305C74.1472 285.593 72.8119 285.68 71.4868 285.562L34.6895 282.324L39.696 270.714L56.9863 246.432L81.2064 241.352Z" fill="#A8A8A8"/>
<path opacity="0.1" d="M75.5722 234.515C75.5722 234.515 85.504 235.197 81.775 252.267C78.0461 269.337 39.6777 270.705 39.6777 270.705C39.6777 270.705 47.8308 256.254 60.372 245.9C61.7805 244.739 63.1394 243.529 64.435 242.237C67.3197 239.352 72.8364 234.28 75.5722 234.515Z" fill="white"/>
<path opacity="0.1" d="M84.5059 247.385C84.5059 247.385 97.9634 259.637 96.6949 278.49L84.5059 247.385Z" fill="black"/>
<path opacity="0.1" d="M107.146 208.802C107.146 208.802 93.025 227.588 91.4404 256.494L107.146 208.802Z" fill="black"/>
<path opacity="0.1" d="M58.679 200.841C58.679 200.841 65.5138 231.887 48.4492 255.288L58.679 200.841Z" fill="black"/>
<path d="M183.165 315.822H256.814C257.526 315.818 258.224 315.63 258.842 315.277C259.46 314.923 259.976 314.415 260.339 313.803C260.703 313.19 260.902 312.494 260.917 311.782C260.932 311.07 260.763 310.367 260.425 309.74L223.619 241.334C223.266 240.678 222.743 240.13 222.103 239.748C221.464 239.366 220.734 239.165 219.989 239.165C219.245 239.165 218.514 239.366 217.875 239.748C217.236 240.13 216.713 240.678 216.36 241.334L179.535 309.74C179.197 310.368 179.028 311.073 179.044 311.787C179.06 312.5 179.26 313.198 179.626 313.81C179.992 314.423 180.51 314.931 181.13 315.283C181.751 315.636 182.452 315.822 183.165 315.822ZM224.675 303.323H215.303V293.952H224.675V303.323ZM224.675 287.702H215.303V268.957H224.675V287.702Z" fill="#464353"/>
<path opacity="0.1" d="M183.165 315.822H256.814C257.526 315.818 258.224 315.63 258.842 315.277C259.46 314.923 259.976 314.415 260.339 313.803C260.703 313.19 260.902 312.494 260.917 311.782C260.932 311.07 260.763 310.367 260.425 309.74L223.619 241.334C223.266 240.678 222.743 240.13 222.103 239.748C221.464 239.366 220.734 239.165 219.989 239.165C219.245 239.165 218.514 239.366 217.875 239.748C217.236 240.13 216.713 240.678 216.36 241.334L179.535 309.74C179.197 310.368 179.028 311.073 179.044 311.787C179.06 312.5 179.26 313.198 179.626 313.81C179.992 314.423 180.51 314.931 181.13 315.283C181.751 315.636 182.452 315.822 183.165 315.822ZM224.675 303.323H215.303V293.952H224.675V303.323ZM224.675 287.702H215.303V268.957H224.675V287.702Z" fill="black"/>
<path d="M183.165 318.08H256.814C257.526 318.076 258.224 317.888 258.842 317.535C259.46 317.181 259.976 316.673 260.339 316.061C260.703 315.448 260.902 314.752 260.917 314.04C260.932 313.328 260.763 312.625 260.425 311.997L223.619 243.592C223.266 242.936 222.743 242.388 222.103 242.006C221.464 241.624 220.734 241.423 219.989 241.423C219.245 241.423 218.514 241.624 217.875 242.006C217.236 242.388 216.713 242.936 216.36 243.592L179.535 311.997C179.197 312.626 179.028 313.331 179.044 314.045C179.06 314.758 179.26 315.455 179.626 316.068C179.992 316.681 180.51 317.188 181.13 317.541C181.751 317.894 182.452 318.08 183.165 318.08ZM224.675 305.58H215.303V296.21H224.675V305.58ZM224.675 289.96H215.303V271.215H224.675V289.96Z" fill="#464353"/>
<path d="M105.552 106.898C105.503 107.842 105.972 108.705 106.247 109.608C106.703 111.352 106.658 113.19 106.117 114.909C105.611 116.716 104.762 118.626 105.408 120.392C105.557 120.807 105.782 121.186 105.918 121.602C106.478 123.318 105.439 125.124 104.302 126.529L108.767 129.658C109.418 130.199 110.194 130.569 111.024 130.737C111.859 130.837 112.83 130.39 113.001 129.568C113.06 129.288 113.001 128.994 113.055 128.71C113.11 128.342 113.252 127.992 113.47 127.691C113.688 127.389 113.974 127.144 114.306 126.976C114.976 126.647 115.724 126.508 116.468 126.574C119.208 126.723 121.538 128.525 124.03 129.681C125.673 130.392 127.375 130.957 129.118 131.37C130.106 131.627 131.203 131.862 132.097 131.37C132.991 130.877 133.402 129.735 133.334 128.701C133.195 127.672 132.874 126.677 132.386 125.761C131.893 124.846 131.597 123.839 131.515 122.803C131.515 121.286 132.346 119.904 132.625 118.414C133.018 116.296 132.219 114.142 131.244 112.218C130.269 110.294 129.086 108.443 128.612 106.347C128.518 105.712 128.353 105.09 128.12 104.491C127.894 104.037 127.588 103.627 127.217 103.281C125.542 101.624 123.154 100.838 120.816 100.667C118.477 100.495 116.116 100.879 113.796 101.281C112.91 101.407 112.038 101.614 111.191 101.899C109.98 102.381 108.829 103.004 107.764 103.755C106.708 104.487 105.62 105.557 105.552 106.898Z" fill="#464353"/>
<g opacity="0.1">
<path opacity="0.1" d="M131.501 121.877C131.501 122.013 131.501 122.148 131.528 122.279C131.668 120.956 132.364 119.714 132.612 118.391C132.708 117.861 132.737 117.321 132.698 116.783C132.698 117.018 132.652 117.235 132.612 117.488C132.327 118.978 131.483 120.36 131.501 121.877Z" fill="black"/>
<path opacity="0.1" d="M106.55 111.414C106.603 110.5 106.501 109.584 106.248 108.705C105.981 108.019 105.762 107.316 105.593 106.6C105.593 106.695 105.557 106.785 105.552 106.88C105.503 107.824 105.972 108.687 106.248 109.59C106.422 110.183 106.524 110.796 106.55 111.414Z" fill="black"/>
<path opacity="0.1" d="M133.293 128.452C133.262 128.856 133.136 129.246 132.926 129.592C132.716 129.938 132.427 130.23 132.084 130.444C131.181 130.936 130.093 130.701 129.104 130.444C127.361 130.032 125.658 129.465 124.016 128.75C121.524 127.599 119.195 125.797 116.455 125.648C115.711 125.582 114.963 125.721 114.292 126.05C113.96 126.218 113.674 126.463 113.456 126.765C113.239 127.067 113.097 127.416 113.042 127.784C113.01 128.068 113.042 128.362 112.987 128.642C112.811 129.464 111.845 129.911 111.01 129.812C110.18 129.644 109.405 129.273 108.753 128.732L104.74 125.914C104.591 126.118 104.442 126.316 104.288 126.501L108.753 129.635C109.405 130.176 110.18 130.547 111.01 130.715C111.845 130.814 112.816 130.367 112.987 129.545C113.046 129.265 112.987 128.972 113.042 128.687C113.097 128.319 113.239 127.97 113.456 127.668C113.674 127.366 113.96 127.121 114.292 126.953C114.963 126.624 115.711 126.485 116.455 126.551C119.195 126.7 121.524 128.502 124.016 129.654C125.658 130.369 127.361 130.935 129.104 131.347C130.093 131.604 131.19 131.839 132.084 131.347C132.977 130.855 133.388 129.712 133.321 128.678C133.316 128.601 133.303 128.529 133.293 128.452Z" fill="black"/>
<path opacity="0.1" d="M105.918 121.579C105.974 121.761 106.014 121.947 106.04 122.135C106.11 121.646 106.068 121.147 105.918 120.676C105.782 120.261 105.557 119.881 105.408 119.466C105.299 119.164 105.229 118.85 105.2 118.531C105.133 119.152 105.204 119.779 105.408 120.369C105.557 120.784 105.782 121.168 105.918 121.579Z" fill="black"/>
</g>
<path d="M111.218 292.932C111.187 293.06 111.114 293.175 111.01 293.257C110.9 293.314 110.777 293.34 110.654 293.334C109.046 293.37 107.439 293.334 105.837 293.447C104.32 293.577 102.798 293.898 101.286 293.726C100.802 293.744 100.325 293.61 99.9207 293.344C99.5163 293.077 99.2046 292.692 99.0289 292.241C98.9335 292.044 98.8491 291.842 98.7761 291.636C98.3594 290.571 98.1495 289.437 98.1576 288.294C98.1576 287.991 98.1576 287.698 98.1576 287.391C98.1378 287.06 98.0941 286.731 98.0267 286.406C97.8898 286.035 97.906 285.624 98.0718 285.264C98.7129 284.094 100.261 283.859 101.453 283.769C104.214 283.561 106.991 283.765 109.692 284.374C109.904 285.413 110.143 286.443 110.396 287.472C110.583 288.228 110.782 288.98 110.992 289.73C111.134 290.194 111.248 290.666 111.335 291.143C111.447 291.74 111.407 292.355 111.218 292.932Z" fill="#464353"/>
<path opacity="0.06" d="M111.218 292.932C111.187 293.06 111.114 293.175 111.011 293.257C110.901 293.314 110.778 293.34 110.654 293.334C109.047 293.37 107.44 293.334 105.837 293.447C104.32 293.577 102.799 293.898 101.286 293.726C100.803 293.744 100.325 293.61 99.921 293.344C99.5166 293.077 99.2049 292.692 99.0292 292.241C98.9338 292.044 98.8494 291.842 98.7764 291.636H99.3542C101.255 291.636 103.16 291.568 105.06 291.568C105.634 291.568 106.212 291.541 106.781 291.473C107.349 291.405 107.814 291.311 108.333 291.247C109.111 291.173 109.891 291.141 110.672 291.152H111.313C111.43 291.744 111.398 292.356 111.218 292.932Z" fill="black"/>
<path d="M144.467 284.546C143.964 285.133 143.321 285.585 142.598 285.86C139.384 287.215 135.668 286.605 132.35 285.503C131.608 285.227 130.846 285.009 130.07 284.848C129.363 284.749 128.649 284.699 127.935 284.699C127.425 284.699 126.915 284.659 126.404 284.627C125.113 284.546 123.827 284.419 122.545 284.293C121.651 284.227 120.763 284.093 119.89 283.891C119.642 283.827 119.403 283.73 119.181 283.602C118.992 283.519 118.83 283.383 118.715 283.211C118.6 283.039 118.536 282.838 118.531 282.631C118.567 282.058 119.163 281.728 119.687 281.48C124.332 279.47 129.379 278.599 134.391 277.899C134.9 277.813 135.397 277.662 135.867 277.447C136.431 277.221 136.49 277.591 136.77 278.007C136.902 278.199 137.053 278.378 137.221 278.54C137.765 279.031 138.404 279.406 139.099 279.642C140.318 280.093 141.623 280.215 142.842 280.644C143.21 280.772 143.563 280.942 143.893 281.15C144.185 281.309 144.436 281.532 144.628 281.803C144.82 282.074 144.947 282.385 145.001 282.713C145.054 283.041 145.031 283.376 144.935 283.694C144.838 284.012 144.671 284.303 144.444 284.546H144.467Z" fill="#464353"/>
<path opacity="0.06" d="M144.467 284.546C143.963 285.133 143.321 285.585 142.598 285.86C139.383 287.215 135.668 286.605 132.35 285.503C131.608 285.227 130.845 285.009 130.07 284.848C129.363 284.749 128.649 284.699 127.935 284.699C127.425 284.699 126.914 284.659 126.404 284.627C126.82 284.234 127.244 283.85 127.677 283.48C127.992 283.186 128.353 282.948 128.747 282.776C129.238 282.615 129.761 282.579 130.269 282.672C132.851 283.029 135.171 284.839 137.776 284.681C138.99 284.542 140.164 284.162 141.23 283.566C142.097 283.213 142.87 282.662 143.487 281.958C143.673 281.716 143.815 281.442 143.907 281.15C144.198 281.309 144.45 281.532 144.642 281.803C144.833 282.074 144.961 282.385 145.014 282.713C145.067 283.041 145.045 283.376 144.948 283.694C144.852 284.012 144.684 284.303 144.458 284.546H144.467Z" fill="black"/>
<path d="M143.56 206.066C143.108 206.969 142.53 207.949 141.555 208.229C140.138 208.635 138.774 207.362 138.156 206.025C137.313 204.063 137.154 201.874 137.704 199.811C137.962 198.768 138.354 197.765 138.576 196.718C138.735 195.836 138.832 194.944 138.865 194.049C138.998 192.714 138.966 191.367 138.77 190.039C138.043 186.16 134.707 183.265 133.596 179.454C133.036 177.553 133.063 175.53 133.095 173.547C133.085 173.046 133.136 172.545 133.249 172.057C133.282 171.924 133.327 171.794 133.384 171.669C134.129 170.016 136.336 169.79 137.871 168.828C138.72 168.3 140.648 166.597 141.361 168.151C141.515 168.497 141.63 168.859 141.704 169.23C141.998 170.612 141.88 172.233 141.952 173.538C142.228 178.469 143.456 183.392 142.887 188.296C142.751 189.132 142.685 189.978 142.688 190.825C142.81 192.947 144.137 194.785 144.747 196.817C145.686 199.874 144.932 203.203 143.56 206.066Z" fill="#FBBEBE"/>
<path opacity="0.1" d="M141.727 169.239C141.392 169.117 141.024 169.117 140.689 169.239L137.632 170.142C136.561 170.428 135.518 170.807 134.513 171.276C134.074 171.491 133.659 171.75 133.271 172.048C133.305 171.915 133.35 171.785 133.407 171.66C134.152 170.007 136.359 169.781 137.894 168.819C138.743 168.291 140.671 166.588 141.384 168.142C141.539 168.493 141.654 168.862 141.727 169.239Z" fill="black"/>
<path d="M141.925 168.896C141.741 168.784 141.533 168.717 141.319 168.7C141.104 168.682 140.888 168.716 140.688 168.797L137.632 169.7C136.561 169.985 135.517 170.365 134.513 170.833C133.979 171.093 133.48 171.417 133.027 171.8C131.601 169.32 131.221 166.381 130.96 163.536C130.815 161.878 130.707 160.217 130.644 158.568C130.573 157.382 130.597 156.192 130.716 155.01C130.887 153.655 131.28 152.332 131.524 150.986C131.669 150.198 131.763 149.402 131.804 148.602C131.921 146.854 131.841 145.098 131.565 143.368C131.302 141.529 130.882 139.716 130.31 137.949C130.021 137.141 129.673 136.36 129.357 135.565L129.249 135.285C128.678 133.828 128.212 132.333 127.854 130.81C127.709 130.186 127.7 129.532 127.222 129.107C127.671 129.053 128.124 129.035 128.576 129.053C128.666 129.053 128.757 129.053 128.847 129.053C130.701 129.17 132.488 129.795 134.011 130.859C135.973 132.275 137.464 134.248 138.291 136.522C139.244 139.064 139.402 141.828 139.524 144.542C139.767 149.877 139.918 155.215 139.975 160.555C139.975 161.58 140.02 162.673 140.607 163.518C140.772 163.726 140.923 163.944 141.058 164.172C141.271 164.624 141.239 165.125 141.411 165.581C141.537 165.855 141.68 166.121 141.839 166.376C142.042 166.763 142.154 167.19 142.169 167.626C142.184 168.062 142.101 168.496 141.925 168.896Z" fill="#464353"/>
<path d="M111.877 115.889C111.425 115.74 110.974 115.582 110.522 115.438L111.461 115.51C111.618 115.615 111.758 115.743 111.877 115.889Z" fill="#FBBEBE"/>
<path d="M130.364 132.187C130.273 132.494 130.183 132.801 130.084 133.09C129.855 133.832 129.576 134.558 129.249 135.262C128.737 136.419 128.013 137.47 127.113 138.36C126.816 138.673 126.452 138.914 126.048 139.064C125.706 139.152 125.353 139.186 125.001 139.164C123.797 139.164 122.593 139.146 121.389 139.11C120.452 139.12 119.516 139.028 118.599 138.834C117.59 138.559 116.63 138.126 115.755 137.552C112.383 135.465 109.611 132.286 108.423 128.52C108.274 128.041 108.171 127.468 108.5 127.093C108.824 126.828 109.233 126.689 109.651 126.7H109.706C110.676 126.574 111.611 126.253 112.455 125.756C113.001 125.477 113.442 125.026 113.71 124.474C113.893 123.819 113.879 123.125 113.669 122.478L112.667 117.926C112.563 117.197 112.289 116.503 111.868 115.898C112.161 116.002 112.455 116.097 112.771 116.178C115.561 116.932 118.613 116.476 121.348 117.465C122.396 117.849 123.443 118.54 123.759 119.615C124.287 121.421 122.522 123.295 123.028 125.102C123.366 126.33 124.617 127.039 125.736 127.612L126.49 127.996L128.58 129.057L128.869 129.202L128.915 129.225C129.574 129.559 130.269 129.974 130.499 130.683C130.597 131.187 130.55 131.709 130.364 132.187Z" fill="#FBBEBE"/>
<path opacity="0.1" d="M135.871 142.79C135.795 143.944 135.514 145.076 135.041 146.132C134.134 147.958 133.648 149.964 133.619 152.002C133.271 158.099 130.955 165.356 134.273 170.476C134.354 170.603 134.436 170.729 134.512 170.86C133.979 171.12 133.48 171.444 133.027 171.827C131.601 169.347 131.221 166.408 130.96 163.563C130.815 161.905 130.707 160.244 130.644 158.595C130.573 157.409 130.597 156.219 130.716 155.037C130.887 153.682 131.28 152.359 131.524 151.013C131.669 150.225 131.763 149.429 131.804 148.629C131.921 146.881 131.841 145.125 131.565 143.395C131.302 141.556 130.882 139.743 130.31 137.976C130.021 137.168 129.673 136.387 129.357 135.592L129.249 135.312C128.737 136.469 128.013 137.52 127.113 138.41C126.816 138.722 126.452 138.963 126.048 139.114C125.706 139.202 125.353 139.235 125.001 139.213C123.797 139.213 122.593 139.195 121.389 139.159C120.452 139.17 119.516 139.077 118.599 138.884C117.59 138.608 116.63 138.176 115.755 137.601C112.383 135.515 109.611 132.336 108.423 128.57C108.274 128.091 108.171 127.518 108.5 127.143C108.824 126.878 109.233 126.739 109.651 126.75H109.706L113.769 131.776C114.235 132.308 114.629 132.898 114.942 133.533C115.003 133.745 115.129 133.934 115.303 134.07C115.445 134.135 115.6 134.162 115.755 134.151C119.57 134.151 124.653 134.151 128.468 134.151C128.48 133.475 128.285 132.812 127.908 132.25C127.79 132.277 127.632 132.286 127.876 132.214C127.656 130.748 127.182 129.332 126.477 128.028C126.435 127.938 126.388 127.851 126.337 127.766C126.034 127.319 125.808 126.825 125.669 126.303C126.15 126.149 126.668 126.149 127.149 126.303C127.705 126.542 127.994 127.143 128.237 127.698C128.445 128.15 128.653 128.633 128.838 129.107C128.838 129.157 128.883 129.211 128.901 129.261C129.295 130.195 129.547 131.183 129.65 132.191C129.677 132.562 129.768 133.031 130.075 133.153C130.123 133.175 130.175 133.188 130.228 133.189C130.546 133.073 130.891 133.054 131.22 133.134C131.549 133.215 131.846 133.391 132.075 133.641C132.519 134.15 132.829 134.761 132.978 135.42C133.124 136.079 133.339 136.721 133.619 137.335C134.201 138.446 133.312 138.943 134.363 139.624C134.855 139.895 135.279 140.275 135.6 140.735C135.898 141.377 135.992 142.094 135.871 142.79Z" fill="black"/>
<path opacity="0.1" d="M109.652 284.392C109.864 285.431 110.103 286.461 110.356 287.49L110.329 287.553C108.266 286.65 106.153 285.706 103.901 285.508C101.81 285.327 99.5396 285.892 98.1176 287.409C98.0978 287.078 98.054 286.749 97.9867 286.424C97.8497 286.053 97.866 285.642 98.0318 285.282C98.6729 284.112 100.221 283.877 101.413 283.787C104.174 283.579 106.951 283.783 109.652 284.392Z" fill="black"/>
<path opacity="0.1" d="M127.434 133.077C127.646 133.077 127.569 133.077 127.466 133.113C127.362 133.149 127.19 133.149 127.434 133.077Z" fill="black"/>
<path opacity="0.1" d="M137.244 278.54C135.23 279.823 133.339 281.288 131.592 282.916C131.084 283.459 130.479 283.902 129.808 284.221C129.115 284.444 128.383 284.519 127.659 284.442C124.82 284.327 121.989 284.047 119.181 283.602C118.992 283.519 118.83 283.383 118.715 283.211C118.6 283.039 118.536 282.838 118.531 282.631C118.567 282.058 119.163 281.728 119.687 281.48C124.332 279.47 129.379 278.599 134.391 277.899C134.9 277.813 135.397 277.662 135.867 277.447C136.431 277.221 136.49 277.591 136.77 278.007C136.909 278.2 137.068 278.379 137.244 278.54Z" fill="black"/>
<path d="M104.121 127.838C104.785 128.43 105.543 128.908 106.216 129.482C108.022 131.013 109.159 133.153 110.279 135.24C109.615 135.48 108.897 135.528 108.207 135.38C107.852 137.383 107.912 139.438 108.383 141.417C107.48 142.037 106.778 142.909 106.365 143.923C106.044 144.954 105.823 146.012 105.706 147.085C105.056 151.784 104.403 156.483 103.747 161.183C103.733 161.643 103.575 162.087 103.295 162.452C103.17 162.553 103.055 162.667 102.952 162.791C102.814 163.094 102.759 163.43 102.794 163.761C102.767 164.091 102.55 164.484 102.221 164.439C102.061 164.401 101.919 164.308 101.819 164.177C101.489 163.828 101.187 163.453 100.916 163.057C98.2526 168.169 96.9705 173.678 95.562 179.269C94.5552 183.252 93.5485 187.28 93.4988 191.389C93.5124 193.333 93.6345 195.275 93.8645 197.206L94.2618 201.17C94.5823 204.359 94.9028 207.551 95.2505 210.739C95.4762 212.763 95.7019 214.804 96.4287 216.709C97.5122 219.604 96.3114 222.869 96.7718 225.931C97.133 228.329 97.8508 230.808 97.1285 233.12C96.8395 234.046 96.3339 234.89 95.9547 235.784C95.0247 238.006 94.9299 240.476 94.8487 242.883C94.7025 244.993 94.7812 247.112 95.0834 249.205C95.4717 251.368 96.343 253.486 96.1714 255.672C95.9321 258.783 93.6388 261.443 93.3589 264.55C93.1377 267.029 94.2257 269.422 95.3949 271.622C96.2572 273.243 95.0563 275.338 94.6004 277.122C93.6975 280.617 95.2008 284.275 97.0427 287.377C97.0897 287.484 97.1728 287.57 97.2774 287.621C97.4896 287.698 97.6792 287.49 97.8192 287.314C99.2051 285.535 101.661 284.862 103.914 285.056C106.166 285.25 108.275 286.181 110.342 287.102L113.272 280.576C113.769 279.47 114.274 278.273 114.026 277.086C113.85 276.237 113.304 275.519 112.916 274.742C112.013 272.909 111.967 270.773 111.958 268.718L111.904 257.112C114.189 254.24 115.584 250.826 116.464 247.259C117.814 252.277 117.907 257.55 116.735 262.613C116.518 263.378 116.367 264.161 116.283 264.952C116.107 268.172 118.631 270.895 119.303 274.047C119.369 274.288 119.387 274.539 119.358 274.787C119.282 275.092 119.155 275.382 118.983 275.645C117.773 277.84 117.904 280.5 118.08 283.001C121.246 283.553 124.444 283.895 127.655 284.027C128.379 284.099 129.11 284.024 129.804 283.805C130.475 283.484 131.08 283.04 131.587 282.496C133.637 280.567 135.888 278.864 138.3 277.415C136.953 275.179 135.067 273.316 132.815 271.996C133.542 270.926 135.199 271.012 136.165 270.154C136.65 269.674 136.967 269.05 137.068 268.375C137.429 266.605 136.982 264.762 136.535 263.024C135.668 259.601 134.797 256.164 133.375 252.931C132.732 251.602 132.165 250.237 131.678 248.844C130.495 244.951 131.321 240.715 130.427 236.737C130.138 235.463 129.673 234.149 129.998 232.88C130.495 230.925 132.707 229.765 133.194 227.805C134.942 220.828 135.253 213.598 136.246 206.477C136.468 205.116 136.588 203.741 136.603 202.363C136.603 200.922 136.346 199.495 136.242 198.059C135.835 192.31 137.673 186.575 137.203 180.831C136.903 177.291 135.737 173.88 133.808 170.896C130.49 165.771 132.806 158.519 133.154 152.422C133.18 150.384 133.664 148.377 134.571 146.552C135.048 145.497 135.331 144.365 135.407 143.21C135.546 142.498 135.457 141.76 135.154 141.101C134.836 140.639 134.414 140.258 133.921 139.99C132.869 139.304 133.759 138.807 133.176 137.696C132.896 137.082 132.681 136.44 132.535 135.781C132.388 135.124 132.077 134.513 131.632 134.007C131.404 133.757 131.107 133.58 130.778 133.5C130.449 133.42 130.104 133.439 129.786 133.555C129.357 133.555 129.24 132.986 129.204 132.557C129.082 130.986 128.432 129.509 127.795 128.064C127.551 127.509 127.262 126.908 126.707 126.669C126.224 126.517 125.705 126.517 125.222 126.669C125.362 127.192 125.589 127.688 125.895 128.136C126.677 129.509 127.198 131.016 127.429 132.58C126.978 132.715 127.881 132.58 127.429 132.58C127.834 133.143 128.042 133.824 128.021 134.517C124.211 134.517 119.127 134.517 115.313 134.517C115.158 134.529 115.002 134.501 114.861 134.436C114.687 134.298 114.56 134.111 114.496 133.898C114.185 133.264 113.79 132.675 113.322 132.146L108.853 126.632C108.753 126.488 108.622 126.369 108.469 126.285C108.284 126.233 108.089 126.233 107.904 126.285C106.455 126.497 105.385 127.102 104.121 127.838Z" fill="#5996EC"/>
<path opacity="0.1" d="M120.161 202.548C120.932 202.537 121.691 202.734 122.36 203.117C122.692 203.312 122.967 203.591 123.158 203.925C123.35 204.259 123.451 204.637 123.452 205.022C123.403 205.876 122.748 206.553 122.274 207.28C121.981 207.723 121.747 208.203 121.579 208.707C121.527 208.822 121.514 208.95 121.543 209.073C121.597 209.245 121.782 209.33 121.94 209.407C122.514 209.667 123.005 210.082 123.356 210.605C123.708 211.129 123.907 211.74 123.931 212.37C123.89 214.131 122.17 215.558 122.265 217.337C122.308 217.708 122.371 218.075 122.454 218.439C122.661 219.955 122.45 221.499 121.845 222.905C121.299 224.323 120.554 225.655 119.967 227.06C118.382 230.875 118.039 235.102 118.161 239.252C118.256 242.07 117.258 244.753 116.355 247.435C116.866 242.032 117.001 236.6 116.762 231.178C116.699 229.706 116.513 228.315 116.581 226.838C116.69 224.495 117.999 222.363 118.333 220.065C118.522 218.75 118.396 217.414 118.428 216.086C118.491 213.377 119.227 210.703 119.276 207.985C119.34 206.066 119.163 204.088 120.161 202.548Z" fill="black"/>
<path d="M101.322 128.805C100.425 129.252 99.5847 129.807 98.821 130.457C98.0231 131.25 97.3557 132.165 96.8437 133.167C96.2203 134.303 95.6611 135.473 95.1688 136.671C94.5323 138.225 94.0041 139.945 94.442 141.566C94.8393 143.034 95.9634 144.176 96.7399 145.481C97.5164 146.787 97.9723 148.317 98.5682 149.749C99.3628 151.659 100.451 153.438 101.236 155.353C102.022 157.268 102.496 159.417 101.999 161.409C101.855 161.996 100.902 162.452 100.902 163.052C100.902 164.046 102.338 165.125 103.29 165.414C104.387 165.753 105.584 165.247 106.482 164.511C108.13 163.206 109.132 161.251 109.872 159.282C111.064 156.121 111.701 152.765 112.274 149.433C112.689 146.985 113.078 144.533 113.299 142.067C113.502 139.846 113.565 137.552 112.978 135.42C112.431 133.464 111.366 131.692 109.895 130.29C108.721 129.161 106.798 127.644 105.092 127.603C103.742 127.599 102.478 128.168 101.322 128.805Z" fill="#464353"/>
<path d="M114.157 183.243C114.108 183.551 113.992 183.846 113.818 184.105C113.645 184.365 113.417 184.584 113.15 184.746C112.617 185.07 112.037 185.308 111.43 185.451C110.22 185.803 108.938 186.128 107.715 185.817C106.753 185.504 105.865 184.998 105.105 184.331L91.4354 173.863C90.3372 173.085 89.3275 172.188 88.4242 171.19C87.9057 170.545 87.4291 169.868 86.9977 169.162C86.4264 168.354 85.9791 167.465 85.6704 166.525C85.5602 166.111 85.5056 165.685 85.5079 165.256C85.5043 164.851 85.6037 164.452 85.7968 164.096C86.1264 163.545 86.8306 163.432 87.4085 163.278C89.348 162.777 91.3611 162.624 93.354 162.827C93.5291 162.818 93.7021 162.867 93.8471 162.966C93.992 163.064 94.101 163.207 94.1576 163.373C94.4601 163.929 94.7219 164.507 94.9928 165.085C95.4085 166.07 95.9502 166.998 96.6044 167.844C97.2347 168.529 97.9056 169.176 98.6134 169.781C100.058 171.136 101.241 172.761 102.78 174.008C104.563 175.448 106.73 176.311 108.762 177.372C110.793 178.433 112.798 179.811 113.818 181.865C114.055 182.285 114.172 182.761 114.157 183.243Z" fill="#FBBEBE"/>
<path opacity="0.1" d="M129.981 110.213C129.981 113.064 128.893 115.808 126.938 117.883C124.984 119.958 122.31 121.208 119.465 121.377C116.62 121.545 113.818 120.621 111.631 118.792C109.445 116.962 108.04 114.367 107.703 111.536C107.367 108.705 108.124 105.852 109.82 103.561C111.516 101.27 114.023 99.7131 116.829 99.2096C119.634 98.7061 122.526 99.2937 124.913 100.852C127.299 102.411 129.001 104.822 129.669 107.594C129.876 108.451 129.981 109.331 129.981 110.213Z" fill="black"/>
<path d="M129.981 109.761C129.981 112.612 128.893 115.356 126.938 117.431C124.984 119.506 122.31 120.756 119.465 120.925C116.62 121.094 113.818 120.169 111.631 118.34C109.445 116.511 108.04 113.915 107.703 111.084C107.367 108.253 108.124 105.4 109.82 103.109C111.516 100.818 114.023 99.2615 116.829 98.758C119.634 98.2545 122.526 98.8421 124.913 100.401C127.299 101.959 129.001 104.371 129.669 107.142C129.876 108 129.981 108.879 129.981 109.761Z" fill="#FBBEBE"/>
<path opacity="0.1" d="M94.9928 165.067C94.4781 165.396 93.7152 165.288 93.0786 165.143C90.5686 164.583 87.7967 164.181 85.5079 165.256C85.5043 164.851 85.6037 164.452 85.7968 164.096C86.1264 163.545 86.8306 163.432 87.4085 163.278C89.348 162.777 91.3611 162.624 93.354 162.827C93.5291 162.818 93.7021 162.867 93.8471 162.966C93.992 163.064 94.101 163.207 94.1576 163.373C94.4601 163.91 94.7219 164.488 94.9928 165.067Z" fill="black"/>
<path d="M90.2752 149.862C89.7199 151.668 89.264 153.524 88.176 155.055C87.8163 155.458 87.5455 155.931 87.3814 156.446C87.3691 156.826 87.3068 157.202 87.1963 157.566C87.0428 157.873 86.7178 158.076 86.5869 158.392C86.3928 158.844 86.6456 159.426 86.3882 159.851C86.2678 160.021 86.1233 160.173 85.9594 160.302C85.3454 160.871 85.1919 161.779 85.1784 162.619C85.1648 163.459 85.2461 164.317 84.9707 165.107C87.3543 163.685 90.388 164.109 93.0967 164.714C93.8506 164.881 94.7851 165.008 95.2727 164.403C95.7603 163.798 95.4803 163.003 95.5481 162.276C95.6384 161.327 96.2884 160.542 96.6902 159.679C97.1417 158.708 97.2952 157.624 97.6428 156.613C98.3606 154.486 99.9 152.752 100.889 150.742C101.255 150.051 101.473 149.292 101.53 148.512C101.496 147.501 101.232 146.511 100.758 145.617C99.8182 143.536 98.7005 141.54 97.4171 139.652C96.8437 138.807 95.855 137.245 94.9657 138.595C94.2434 139.683 93.7919 141.069 93.2592 142.262C92.1113 144.732 91.1147 147.27 90.2752 149.862Z" fill="#464353"/>
<path d="M131.009 132.331C129.653 132.425 128.294 132.214 127.031 131.715C125.767 131.216 124.63 130.44 123.705 129.446C123.549 129.304 123.436 129.121 123.38 128.917C123.354 128.653 123.428 128.389 123.587 128.177C124.129 127.341 125.063 126.79 125.497 125.892C125.93 124.993 125.781 123.959 125.822 122.975C125.894 121.209 126.589 119.461 126.648 117.723C126.669 117.278 126.636 116.832 126.549 116.395C126.341 115.746 126.214 115.074 126.169 114.395C126.228 113.071 127.42 112.042 127.619 110.737C127.876 109.075 126.499 107.63 125.113 106.673C124.056 105.939 122.909 105.346 121.7 104.907C120.958 104.641 120.189 104.455 119.407 104.351C117.949 104.154 116.465 104.32 115.087 104.835C114.516 105.05 113.976 105.338 113.479 105.693C113.184 105.88 112.937 106.135 112.762 106.438C112.617 106.778 112.552 107.147 112.572 107.517C112.545 109.364 112.753 111.328 111.872 112.936C111.421 113.799 110.653 114.498 110.279 115.411C110.125 115.79 110.029 116.19 109.994 116.598C109.949 117.021 109.926 117.446 109.926 117.872C109.899 120.252 109.926 122.762 111.136 124.826C111.563 125.45 111.951 126.1 112.297 126.772C112.464 127.113 112.542 127.49 112.522 127.869C112.502 128.247 112.386 128.615 112.184 128.936C111.939 129.228 111.63 129.46 111.281 129.613C110.385 130.043 109.409 130.284 108.415 130.319C107.422 130.355 106.432 130.185 105.507 129.821C106.588 128.795 107.331 127.464 107.636 126.005C107.941 124.546 107.794 123.029 107.213 121.656C106.887 121.102 106.675 120.487 106.59 119.85C106.636 119.275 106.789 118.715 107.042 118.197C107.661 116.5 107.756 114.656 107.317 112.904C107.042 111.83 106.563 110.791 106.477 109.685C106.406 108.85 106.442 108.009 106.586 107.183C106.833 105.705 107.484 104.325 108.466 103.194C109.449 102.063 110.724 101.226 112.152 100.775C112.382 100.698 112.604 100.626 112.856 100.563C113.952 100.319 115.071 100.2 116.193 100.206C118.698 100.125 121.24 100.052 123.655 100.707C125.073 101.079 126.392 101.757 127.519 102.694C128.319 103.367 128.958 104.211 129.388 105.164C129.623 105.713 129.8 106.285 129.916 106.871C130.02 107.354 130.097 107.842 130.174 108.33C130.72 111.803 131.266 115.343 130.684 118.811C130.454 120.166 130.052 121.521 129.871 122.902C129.433 126.086 130.223 129.252 131.009 132.331Z" fill="#464353"/>
<path d="M114.97 136.793C115.433 136.793 115.809 136.417 115.809 135.953C115.809 135.489 115.433 135.113 114.97 135.113C114.506 135.113 114.13 135.489 114.13 135.953C114.13 136.417 114.506 136.793 114.97 136.793Z" fill="white"/>
<path d="M129.14 136.396C129.604 136.396 129.98 136.02 129.98 135.556C129.98 135.092 129.604 134.716 129.14 134.716C128.677 134.716 128.301 135.092 128.301 135.556C128.301 136.02 128.677 136.396 129.14 136.396Z" fill="white"/>
<path opacity="0.1" d="M114.97 93.5044L113.164 90.095C113.279 89.9587 113.404 89.8318 113.539 89.7157C113.799 89.555 114.105 89.4822 114.41 89.508L114.97 93.5044Z" fill="black"/>
<path opacity="0.1" d="M119.949 89.3499L117.904 92.3755L116.739 89.0564C117.236 88.8428 117.774 88.741 118.315 88.7583C118.889 88.8631 119.441 89.063 119.949 89.3499Z" fill="black"/>
<g opacity="0.1">
<path opacity="0.1" d="M112.184 128.041C111.939 128.334 111.63 128.566 111.281 128.719C109.68 129.485 107.854 129.638 106.148 129.148C105.95 129.389 105.735 129.617 105.507 129.83C106.432 130.194 107.422 130.364 108.415 130.328C109.409 130.293 110.384 130.052 111.281 129.622C111.63 129.469 111.939 129.237 112.184 128.945C112.339 128.719 112.445 128.463 112.495 128.194C112.545 127.925 112.537 127.648 112.473 127.382C112.428 127.621 112.329 127.846 112.184 128.041Z" fill="black"/>
<path opacity="0.1" d="M107.285 112.918C107.433 113.51 107.519 114.115 107.543 114.724C107.595 113.813 107.508 112.9 107.285 112.015C107.01 110.94 106.532 109.901 106.446 108.795C106.446 108.655 106.446 108.515 106.423 108.371C106.402 108.813 106.409 109.257 106.446 109.698C106.532 110.805 107.01 111.843 107.285 112.918Z" fill="black"/>
<path opacity="0.1" d="M130.652 118.825C130.844 117.63 130.926 116.421 130.896 115.212C130.88 116.12 130.799 117.025 130.652 117.921C130.422 119.276 130.02 120.631 129.84 122.013C129.747 122.754 129.712 123.501 129.736 124.248C129.748 123.803 129.783 123.358 129.84 122.916C130.02 121.534 130.422 120.193 130.652 118.825Z" fill="black"/>
<path opacity="0.1" d="M107.195 120.762C106.959 120.317 106.768 119.85 106.627 119.367C106.588 119.529 106.57 119.696 106.572 119.863C106.658 120.501 106.869 121.115 107.195 121.67C107.527 122.427 107.718 123.238 107.76 124.063C107.841 122.933 107.648 121.8 107.195 120.762Z" fill="black"/>
<path opacity="0.1" d="M126.549 116.377C126.589 116.583 126.617 116.791 126.635 117C126.635 116.932 126.635 116.869 126.635 116.802C126.656 116.357 126.622 115.911 126.535 115.474C126.436 115 126.274 114.53 126.197 114.051C126.174 114.158 126.161 114.267 126.156 114.377C126.205 115.057 126.337 115.729 126.549 116.377Z" fill="black"/>
<path opacity="0.1" d="M123.704 128.525C123.635 128.452 123.57 128.375 123.51 128.294C123.399 128.475 123.353 128.689 123.379 128.899C123.436 129.103 123.548 129.286 123.704 129.428C124.63 130.422 125.767 131.198 127.03 131.697C128.294 132.196 129.653 132.407 131.009 132.313C130.932 132.015 130.855 131.722 130.783 131.41C129.465 131.471 128.149 131.244 126.926 130.746C125.704 130.248 124.605 129.49 123.704 128.525Z" fill="black"/>
<path opacity="0.1" d="M127.61 109.879C127.608 109.862 127.608 109.846 127.61 109.829C127.867 108.167 126.49 106.722 125.104 105.765C124.047 105.032 122.9 104.438 121.691 103.999C120.949 103.733 120.18 103.547 119.398 103.444C117.94 103.247 116.456 103.413 115.078 103.927C114.507 104.142 113.967 104.431 113.471 104.785C113.175 104.972 112.929 105.228 112.753 105.53C112.608 105.871 112.543 106.24 112.563 106.609C112.563 106.921 112.563 107.233 112.563 107.549V107.512C112.543 107.143 112.608 106.774 112.753 106.433C112.929 106.131 113.175 105.875 113.471 105.688C113.967 105.334 114.507 105.045 115.078 104.83C116.456 104.316 117.94 104.15 119.398 104.347C120.18 104.45 120.949 104.636 121.691 104.902C122.9 105.341 124.047 105.935 125.104 106.668C126.255 107.445 127.389 108.565 127.61 109.879Z" fill="black"/>
<path opacity="0.1" d="M111.872 112.042C111.421 112.904 110.654 113.604 110.279 114.517C110.126 114.896 110.03 115.296 109.994 115.704C109.949 116.127 109.927 116.552 109.927 116.978C109.927 117.361 109.927 117.75 109.927 118.138C109.927 118.052 109.927 117.967 109.927 117.881C109.927 117.455 109.949 117.03 109.994 116.607C110.03 116.199 110.126 115.799 110.279 115.42C110.654 114.517 111.403 113.808 111.872 112.945C112.599 111.59 112.586 110.032 112.572 108.483C112.632 109.709 112.392 110.93 111.872 112.042Z" fill="black"/>
</g>
<path opacity="0.1" d="M129.885 106.903C129.823 106.991 129.75 107.072 129.669 107.142C129.509 107.273 129.331 107.38 129.14 107.458C127.827 108.027 127.881 106.171 127.195 105.535C126.755 105.21 126.215 105.05 125.669 105.083C124.348 105.017 123.025 104.958 121.701 104.907C119.493 104.826 117.29 104.785 115.087 104.835C114.031 104.853 112.977 104.896 111.927 104.966C110.708 105.047 109.399 105.205 108.36 105.783C108.005 105.979 107.683 106.23 107.408 106.528C107.16 106.799 106.898 107.142 106.555 107.205C106.802 105.728 107.453 104.348 108.435 103.217C109.417 102.086 110.693 101.249 112.121 100.797C114.433 99.075 117.321 98.3129 120.181 98.6706C123.042 99.0282 125.653 100.478 127.47 102.717C128.27 103.39 128.909 104.234 129.339 105.187C129.581 105.738 129.764 106.313 129.885 106.903Z" fill="black"/>
<path d="M129.14 106.555C127.827 107.124 127.881 105.268 127.195 104.631C126.755 104.307 126.215 104.147 125.669 104.18C121.094 103.879 116.506 103.84 111.927 104.062C110.297 104.171 108.509 104.415 107.412 105.625C107.132 105.932 106.839 106.329 106.419 106.316C106.279 105.413 106.18 104.473 106.112 103.548C106.071 103.201 106.089 102.85 106.166 102.509C106.279 102.121 106.536 101.791 106.667 101.412C106.796 100.929 106.842 100.428 106.803 99.9305C106.823 98.0881 107.318 96.2821 108.24 94.6871C109.162 93.0922 110.48 91.7625 112.067 90.8266C112.465 90.6318 112.834 90.3825 113.164 90.086C113.278 89.9496 113.403 89.8228 113.538 89.7067C113.799 89.5459 114.104 89.4731 114.41 89.4989C114.626 89.4989 114.861 89.4989 115.051 89.4989C115.635 89.4346 116.205 89.2823 116.744 89.0473C117.241 88.8338 117.778 88.732 118.319 88.7493C118.893 88.8541 119.445 89.054 119.953 89.3409C120.198 89.4586 120.453 89.5509 120.716 89.6163C121.127 89.7112 121.552 89.7067 121.962 89.7879C122.628 89.9574 123.26 90.2383 123.831 90.6189C124.514 90.9869 125.145 91.4423 125.709 91.9736C126.323 92.6752 126.815 93.4752 127.163 94.3399C127.761 95.5345 128.215 96.7956 128.517 98.097C128.883 99.9666 128.702 101.99 129.569 103.688C130.097 104.753 130.58 105.936 129.14 106.555Z" fill="#FED253"/>
<path opacity="0.1" d="M106.257 105.137C106.257 105.137 115.615 96.6203 129.551 103.683C129.551 103.683 113.819 100.102 106.257 105.137Z" fill="black"/>
<path d="M4.28454 148.656C3.01147 146.57 1.09734 144.66 1.39529 142.293C4.89851 142.695 8.22114 141.842 11.4309 140.356C14.6407 138.87 17.6202 136.942 20.6269 135.05C21.8097 134.305 22.9879 133.573 24.1617 132.896C26.0216 131.83 27.868 130.638 29.7596 129.595C32.4683 128.105 35.2311 126.885 38.2739 126.651C38.825 126.607 39.3781 126.594 39.9307 126.61C43.6777 126.682 47.5601 127.689 50.8556 126.009L51.0588 125.901C52.9278 124.876 54.2866 123.133 55.8893 121.719C57.0415 120.722 58.2959 119.851 59.6317 119.118C62.065 117.763 64.7015 116.68 67.1889 115.402C67.8257 115.074 68.4302 114.687 68.9947 114.246L69.4191 113.907L69.5139 113.826C69.6177 113.74 69.7215 113.654 69.8209 113.564L70.015 113.392L70.2136 113.211L70.3671 113.067L70.6154 112.832L70.6425 112.801L71.0352 112.412L71.1933 112.254L71.4686 111.97L71.6312 111.807C71.9065 111.523 72.1819 111.234 72.4618 110.954C72.7417 110.674 73.1209 110.294 73.4595 109.983L73.7846 109.694L73.8794 109.612L74.1412 109.396L74.2631 109.292L74.5204 109.093L74.6468 108.994C74.7732 108.899 74.9041 108.809 75.0351 108.718C75.1555 108.635 75.2823 108.561 75.4143 108.497L74.5701 106.451L76.9988 105.449L110.496 186.756L108.063 187.758L88.9035 141.246L88.768 141.381C84.3297 145.762 78.8932 148.998 72.9268 150.81H72.8907C69.5545 151.817 65.8211 152.531 63.0131 154.4C62.0174 155.048 61.1522 155.876 60.4624 156.843C59.8033 157.783 59.3428 158.853 58.6566 159.756C58.5257 159.923 58.3812 160.086 58.2368 160.239C57.4158 161.053 56.5074 161.774 55.5281 162.389L55.0992 162.682C52.1906 164.729 49.1604 166.598 46.0252 168.277C44.216 169.219 42.3296 170.005 40.3866 170.625C38.9736 171.077 37.5154 171.407 36.1024 171.854C35.1519 172.142 34.2288 172.513 33.3441 172.965C30.9514 174.216 29.114 176.175 27.376 178.266C25.8546 180.1 24.41 182.041 22.7396 183.712C21.6923 184.751 20.0987 185.735 18.8346 185.126L18.5773 184.977C18.6179 184.909 18.6495 184.841 18.6856 184.769C19.6833 182.678 18.4554 180.095 16.8031 178.42C16.6316 178.244 16.4555 178.072 16.2749 177.909C16.0944 177.747 15.7693 177.458 15.512 177.232C14.099 176.017 12.5957 174.888 11.616 173.321C10.8683 172.005 10.3608 170.566 10.1172 169.072C9.66577 166.945 9.3633 164.755 8.2076 162.944C7.44917 161.747 6.32056 160.727 5.49893 159.58C4.97956 158.901 4.63814 158.103 4.50575 157.259C4.32066 155.791 5.00234 154.355 5.25966 152.892C5.33622 152.493 5.36801 152.087 5.35447 151.682C5.26016 150.599 4.89197 149.557 4.28454 148.656Z" fill="url(#paint0_linear_1308_1594)"/>
<path d="M107.211 187.061L109.603 186.075L76.6635 106.134L74.2719 107.12L107.211 187.061Z" fill="#D6D8E1"/>
<path d="M9.0154 162.66C10.1485 164.443 10.451 166.593 10.8889 168.684C11.1318 170.153 11.6315 171.569 12.3651 172.865C13.3312 174.405 14.8074 175.516 16.1934 176.708C16.4462 176.93 16.699 177.16 16.9428 177.377C17.1188 177.535 17.2949 177.706 17.4619 177.873C19.0871 179.522 20.2925 182.064 19.3129 184.119C19.2828 184.189 19.2481 184.257 19.209 184.322C19.2883 184.376 19.3713 184.424 19.4573 184.466C20.7033 185.072 22.2698 184.105 23.2991 183.08C24.9424 181.436 26.3644 179.531 27.8587 177.729C29.5652 175.67 31.3755 173.741 33.7275 172.513C34.5958 172.068 35.5023 171.702 36.4362 171.42C37.8221 170.969 39.2577 170.648 40.6482 170.215C42.558 169.604 44.4126 168.832 46.1919 167.907C49.2796 166.254 52.2646 164.416 55.1305 162.402L55.5549 162.113C56.5173 161.51 57.4105 160.803 58.2184 160.004C58.3629 159.851 58.5028 159.693 58.6337 159.526C59.329 158.622 59.7849 157.588 60.4395 156.663C61.1184 155.712 61.9699 154.897 62.9496 154.26C65.7124 152.422 69.3782 151.718 72.6602 150.729H72.6963C78.5611 148.944 83.9056 145.763 88.2711 141.458C88.6329 141.156 88.9034 140.758 89.0521 140.311C89.1921 139.674 88.849 139.042 88.5194 138.482C88.1357 137.823 87.761 137.163 87.3908 136.495C85.726 133.464 84.2397 130.338 82.9396 127.134C82.6552 126.429 82.3798 125.729 82.1134 125.02C81.4302 123.214 80.8072 121.382 80.2444 119.525C80.0593 118.91 79.8788 118.292 79.7072 117.673C79.6756 117.556 79.6395 117.429 79.6079 117.294C78.8585 114.282 77.8563 107.233 74.7684 109.341C73.8501 109.998 72.996 110.741 72.2177 111.559C71.6173 112.168 71.0304 112.796 70.412 113.401C69.9082 113.897 69.3761 114.363 68.8184 114.797C68.2523 115.23 67.6479 115.611 67.0126 115.934C64.5612 117.19 61.9699 118.242 59.5818 119.588C58.2667 120.307 57.0318 121.163 55.898 122.144C54.3224 123.535 52.9862 125.251 51.1488 126.258L50.9502 126.366C47.7088 128.014 43.8941 127.025 40.2058 126.953C39.6637 126.939 39.1213 126.953 38.5805 126.994C35.5875 127.219 32.8517 128.421 30.2062 129.888C28.3463 130.918 26.5315 132.083 24.7031 133.135C23.5474 133.799 22.3917 134.517 21.227 135.253C18.2745 137.114 15.2815 139.064 12.1981 140.473C9.03797 141.909 5.77402 142.767 2.32949 142.375C2.03605 144.7 3.91407 146.579 5.16908 148.629C5.77186 149.51 6.13726 150.532 6.22998 151.596C6.24657 151.994 6.21779 152.392 6.1442 152.784C5.89139 154.224 5.24131 155.633 5.40383 157.083C5.53194 157.909 5.8657 158.69 6.37444 159.354C7.15996 160.478 8.266 161.485 9.0154 162.66Z" fill="#F86D70"/>
<path d="M100.798 172.066C100.798 172.066 104.753 175.516 108.762 177.354C112.771 179.192 110.116 185.785 110.116 185.785C110.116 185.785 105.868 186.76 102.893 182.624C99.9181 178.488 100.798 172.066 100.798 172.066Z" fill="#FBBEBE"/>
<path d="M313.899 230.794C313.899 230.794 303.425 244.581 294.735 244.694C286.045 244.807 280.943 250.501 285.07 254.06C289.196 257.618 334.16 252.028 334.16 252.028C334.16 252.028 334.584 235.084 330.688 232.61C326.792 230.135 313.899 230.794 313.899 230.794Z" fill="#444176"/>
<path d="M426.512 247.345C426.512 247.345 428.115 258.264 423.162 265.71C418.21 273.157 432.11 276.029 432.11 276.029C432.11 276.029 442.209 278.842 442.945 268.862C443.681 258.882 443.441 251.251 442.493 250.438C441.545 249.625 440.755 244.012 440.755 244.012L426.512 247.345Z" fill="#444176"/>
<path d="M267.964 267.968C267.964 267.968 267.598 232.65 302.536 218.294L310.648 202.855L314.54 193.372C315.949 189.937 318.166 186.893 321.002 184.498C323.839 182.104 327.211 180.429 330.832 179.616L337.125 178.203L339.071 170.002C340.108 165.619 342.405 161.635 345.679 158.542C348.953 155.449 353.06 153.383 357.495 152.598C361.321 151.888 365.205 151.525 369.097 151.515C370.819 151.541 372.505 152.012 373.991 152.882C375.478 153.752 376.714 154.993 377.58 156.482C377.58 156.482 410.68 156.116 412.147 174.143C412.147 174.143 415.46 190.694 420.241 193.638C420.241 193.638 428.331 191.8 436.421 203.573L445.247 233.738C445.247 233.738 468.415 255.441 461.426 275.284C461.426 275.284 451.865 288.895 403.321 279.696C403.321 279.696 351.468 295.501 323.867 273.825C323.862 273.852 277.896 282.681 267.964 267.968Z" fill="#A8A8A8"/>
<path opacity="0.1" d="M291.133 262.45C291.133 262.45 298.491 252.149 298.121 244.789C297.751 237.428 299.855 219.5 299.855 219.5" stroke="black" stroke-miterlimit="10"/>
<path opacity="0.1" d="M317.98 234.858C317.98 234.858 325.335 221.248 324.599 213.891C324.599 213.891 332.323 199.892 338.205 201.012" stroke="black" stroke-miterlimit="10"/>
<path opacity="0.1" d="M358.435 196.23C358.435 196.23 378.659 188.874 379.765 182.99" stroke="black" stroke-miterlimit="10"/>
<path opacity="0.1" d="M365.788 213.155C365.788 213.155 387.119 203.591 387.119 201.012H397.777C397.777 201.012 413.226 221.248 411.389 230.076" stroke="black" stroke-miterlimit="10"/>
<path opacity="0.1" d="M390.798 227.868C390.798 227.868 370.203 226.396 362.844 232.284C355.486 238.173 342.249 241.113 342.249 241.113C342.249 241.113 334.525 257.668 331.582 260.608C328.638 263.547 323.857 273.852 323.857 273.852" stroke="black" stroke-miterlimit="10"/>
<path opacity="0.1" d="M390.798 247.367C390.798 247.367 393.001 255.089 395.944 259.506C398.888 263.922 403.298 279.737 403.298 279.737" stroke="black" stroke-miterlimit="10"/>
<path opacity="0.1" d="M425.365 269.806C425.365 269.806 430.033 282.798 434.137 282.925" stroke="black" stroke-miterlimit="10"/>
<path opacity="0.1" d="M394.789 214.04C394.789 214.04 406.915 217.319 411.985 225.262C417.054 233.206 432.539 240.408 432.539 240.408" stroke="black" stroke-miterlimit="10"/>
<path opacity="0.1" d="M399.989 174.906C399.989 174.906 399.989 191.827 404.77 191.827C409.551 191.827 420.219 193.665 420.219 193.665" stroke="black" stroke-miterlimit="10"/>
<path opacity="0.1" d="M376.56 154.811C376.56 154.811 375.337 184.042 369.084 191.61" stroke="black" stroke-miterlimit="10"/>
<g opacity="0.05">
<path opacity="0.05" d="M444.489 233.386L435.663 203.221C427.573 191.448 419.483 193.286 419.483 193.286C414.702 190.342 411.393 173.787 411.393 173.787C409.921 155.759 376.821 156.13 376.821 156.13C375.954 154.638 374.715 153.396 373.226 152.525C371.736 151.655 370.046 151.185 368.321 151.162C366.759 151.162 365.161 151.212 363.562 151.343C364.465 151.433 365.331 151.561 366.158 151.727L368.732 156.143C368.732 156.143 401.827 155.773 403.299 173.8C403.299 173.8 406.612 190.355 411.393 193.299C411.393 193.299 419.483 191.457 427.573 203.234L436.399 233.4C436.399 233.4 459.567 255.103 452.578 274.945C452.578 274.945 447.861 281.66 428.237 282.473C454.696 283.444 460.668 274.945 460.668 274.945C467.657 255.089 444.489 233.386 444.489 233.386Z" fill="black"/>
<path opacity="0.05" d="M315.036 273.482C307.252 274.883 299.379 275.745 291.476 276.061C300.69 276.413 310.274 275.415 316.45 274.566C315.971 274.2 315.501 273.848 315.036 273.482Z" fill="black"/>
<path opacity="0.05" d="M394.473 279.371C383.151 282.547 371.497 284.39 359.748 284.862C376.7 285.476 392.758 281.94 399.376 280.242C397.778 279.976 396.157 279.673 394.473 279.371Z" fill="black"/>
</g>
<path d="M100.604 336.749C100.604 336.749 110.721 336.437 113.769 334.265C116.816 332.093 129.325 329.501 130.084 332.982C130.842 336.464 145.284 350.301 133.862 350.395C122.441 350.49 107.331 348.616 104.288 346.76C101.246 344.904 100.604 336.749 100.604 336.749Z" fill="#A8A8A8"/>
<path opacity="0.2" d="M134.07 349.181C122.649 349.276 107.534 347.401 104.491 345.568C102.176 344.155 101.25 339.088 100.943 336.753H100.604C100.604 336.753 101.246 344.913 104.288 346.765C107.331 348.616 122.445 350.49 133.862 350.4C137.163 350.373 138.3 349.199 138.237 347.46C137.781 348.508 136.521 349.163 134.07 349.181Z" fill="black"/>
<path d="M347.247 311.37C347.247 311.37 335.333 308.985 332.16 305.806C328.986 302.627 314.689 297.073 313.1 301.042C311.511 305.012 291.661 318.518 305.159 320.912C318.657 323.305 336.923 324.073 340.895 322.501C344.868 320.93 347.247 311.37 347.247 311.37Z" fill="#A8A8A8"/>
<path opacity="0.2" d="M305.159 319.412C318.662 321.792 336.922 322.574 340.895 320.997C343.915 319.787 346.019 313.975 346.85 311.27L347.247 311.356C347.247 311.356 344.863 320.885 340.895 322.474C336.927 324.064 318.662 323.269 305.159 320.885C301.263 320.198 300.148 318.582 300.568 316.54C300.902 317.886 302.26 318.911 305.159 319.412Z" fill="black"/>
<path opacity="0.1" d="M233.171 51.8642H230.336C230.863 51.8642 231.368 51.6548 231.741 51.2822C232.113 50.9096 232.322 50.4042 232.322 49.8772C232.322 49.3502 232.113 48.8448 231.741 48.4722C231.368 48.0996 230.863 47.8902 230.336 47.8902H207.367C206.84 47.8902 206.334 48.0996 205.962 48.4722C205.589 48.8448 205.38 49.3502 205.38 49.8772C205.38 50.4042 205.589 50.9096 205.962 51.2822C206.334 51.6548 206.84 51.8642 207.367 51.8642H210.202C209.692 51.8885 209.211 52.1082 208.859 52.4778C208.506 52.8473 208.31 53.3383 208.31 53.8489C208.31 54.3594 208.506 54.8504 208.859 55.22C209.211 55.5895 209.692 55.8092 210.202 55.8336H206.233C205.707 55.8336 205.201 56.0429 204.829 56.4155C204.456 56.7882 204.247 57.2935 204.247 57.8205C204.247 58.3475 204.456 58.8529 204.829 59.2255C205.201 59.5981 205.707 59.8075 206.233 59.8075H229.203C229.73 59.8075 230.235 59.5981 230.608 59.2255C230.98 58.8529 231.189 58.3475 231.189 57.8205C231.189 57.2935 230.98 56.7882 230.608 56.4155C230.235 56.0429 229.73 55.8336 229.203 55.8336H233.171C233.44 55.8464 233.708 55.8045 233.96 55.7106C234.212 55.6166 234.442 55.4725 234.637 55.2869C234.831 55.1014 234.986 54.8782 235.092 54.6311C235.198 54.3839 235.252 54.1178 235.252 53.8489C235.252 53.58 235.198 53.3138 235.092 53.0667C234.986 52.8195 234.831 52.5963 234.637 52.4108C234.442 52.2252 234.212 52.0811 233.96 51.9871C233.708 51.8932 233.44 51.8513 233.171 51.8642Z" fill="#5996EC"/>
<path opacity="0.1" d="M322.386 121.773H319.551C320.061 121.749 320.542 121.529 320.894 121.16C321.246 120.79 321.443 120.299 321.443 119.789C321.443 119.278 321.246 118.787 320.894 118.418C320.542 118.048 320.061 117.828 319.551 117.804H296.559C296.29 117.791 296.022 117.833 295.77 117.927C295.518 118.021 295.288 118.165 295.094 118.351C294.899 118.536 294.744 118.759 294.638 119.007C294.532 119.254 294.478 119.52 294.478 119.789C294.478 120.058 294.532 120.324 294.638 120.571C294.744 120.818 294.899 121.041 295.094 121.227C295.288 121.412 295.518 121.556 295.77 121.65C296.022 121.744 296.29 121.786 296.559 121.773H299.394C298.884 121.798 298.403 122.017 298.051 122.387C297.699 122.757 297.502 123.248 297.502 123.758C297.502 124.269 297.699 124.76 298.051 125.129C298.403 125.499 298.884 125.719 299.394 125.743H295.426C294.899 125.743 294.394 125.952 294.021 126.325C293.649 126.697 293.439 127.203 293.439 127.73C293.439 128.257 293.649 128.762 294.021 129.135C294.394 129.507 294.899 129.717 295.426 129.717H318.391C318.918 129.717 319.423 129.507 319.795 129.135C320.168 128.762 320.377 128.257 320.377 127.73C320.377 127.203 320.168 126.697 319.795 126.325C319.423 125.952 318.918 125.743 318.391 125.743H322.386C322.655 125.756 322.923 125.714 323.175 125.62C323.427 125.526 323.657 125.382 323.851 125.196C324.046 125.011 324.201 124.788 324.307 124.54C324.413 124.293 324.467 124.027 324.467 123.758C324.467 123.489 324.413 123.223 324.307 122.976C324.201 122.729 324.046 122.506 323.851 122.32C323.657 122.134 323.427 121.99 323.175 121.896C322.923 121.802 322.655 121.761 322.386 121.773Z" fill="#5996EC"/>
<path opacity="0.1" d="M190.189 108.84H187.354C187.622 108.853 187.891 108.811 188.143 108.717C188.395 108.623 188.625 108.479 188.819 108.294C189.014 108.108 189.169 107.885 189.275 107.638C189.38 107.39 189.435 107.124 189.435 106.855C189.435 106.587 189.38 106.32 189.275 106.073C189.169 105.826 189.014 105.603 188.819 105.417C188.625 105.232 188.395 105.088 188.143 104.994C187.891 104.9 187.622 104.858 187.354 104.871H164.38C164.111 104.858 163.843 104.9 163.591 104.994C163.339 105.088 163.109 105.232 162.915 105.417C162.72 105.603 162.565 105.826 162.459 106.073C162.353 106.32 162.299 106.587 162.299 106.855C162.299 107.124 162.353 107.39 162.459 107.638C162.565 107.885 162.72 108.108 162.915 108.294C163.109 108.479 163.339 108.623 163.591 108.717C163.843 108.811 164.111 108.853 164.38 108.84H167.215C166.946 108.827 166.678 108.869 166.426 108.963C166.174 109.057 165.944 109.201 165.75 109.387C165.555 109.572 165.4 109.795 165.294 110.043C165.188 110.29 165.134 110.556 165.134 110.825C165.134 111.094 165.188 111.36 165.294 111.607C165.4 111.854 165.555 112.077 165.75 112.263C165.944 112.448 166.174 112.593 166.426 112.687C166.678 112.781 166.946 112.822 167.215 112.81H163.242C162.715 112.81 162.21 113.019 161.838 113.392C161.465 113.764 161.256 114.27 161.256 114.797C161.256 115.323 161.465 115.829 161.838 116.202C162.21 116.574 162.715 116.783 163.242 116.783H186.212C186.739 116.783 187.244 116.574 187.616 116.202C187.989 115.829 188.198 115.323 188.198 114.797C188.198 114.27 187.989 113.764 187.616 113.392C187.244 113.019 186.739 112.81 186.212 112.81H190.18C190.449 112.822 190.717 112.781 190.969 112.687C191.221 112.593 191.451 112.448 191.645 112.263C191.84 112.077 191.995 111.854 192.101 111.607C192.206 111.36 192.261 111.094 192.261 110.825C192.261 110.556 192.206 110.29 192.101 110.043C191.995 109.795 191.84 109.572 191.645 109.387C191.451 109.201 191.221 109.057 190.969 108.963C190.717 108.869 190.449 108.827 190.18 108.84H190.189Z" fill="#5996EC"/>
</g>
<defs>
<linearGradient id="paint0_linear_1308_1594" x1="-327414" y1="29595.4" x2="-353803" y2="29595.4" gradientUnits="userSpaceOnUse">
<stop stop-color="#808080" stop-opacity="0.25"/>
<stop offset="0.54" stop-color="#808080" stop-opacity="0.12"/>
<stop offset="1" stop-color="#808080" stop-opacity="0.1"/>
</linearGradient>
<clipPath id="clip0_1308_1594">
<rect width="466" height="376" fill="white"/>
</clipPath>
</defs>
</svg>
