<svg width="275" height="285" viewBox="0 0 275 285" fill="none" xmlns="http://www.w3.org/2000/svg">
<g clip-path="url(#clip0_358_367)">
<path d="M80.8172 282.026C85.2318 277.51 87.9133 270.376 87.21 263.431C86.5068 256.485 82.1513 250.101 76.5016 248.626C70.8518 247.151 64.4115 251.234 62.6955 257.915C61.7511 245.033 60.6628 231.612 55.0057 220.642C49.8833 210.708 41.0113 203.601 31.3961 202.329C21.7808 201.058 11.6572 205.86 5.66048 215.048C-0.336206 224.236 -1.80447 237.594 2.39546 248.142C5.48939 255.913 11.1895 261.696 17.1618 266.401C36.4605 281.476 59.6067 287.606 82.3418 283.664" fill="#F2F2F2"/>
<path d="M15.1688 206.126C23.1026 213.95 30.381 222.7 36.8988 232.25C47.099 247.144 55.3532 263.844 61.3737 281.766C61.8144 283.074 60.0607 283.643 59.6249 282.35C55.7963 271.018 51.0596 260.168 45.4827 249.956C36.7862 234.002 26.1317 219.746 13.8864 207.679C12.981 206.786 14.2709 205.241 15.1688 206.127V206.126Z" fill="white"/>
<path d="M83.8664 282.026C79.4518 277.51 76.7703 270.376 77.4736 263.431C78.1768 256.485 82.5323 250.101 88.1821 248.626C93.8318 247.151 100.272 251.234 101.988 257.915C102.933 245.033 104.021 231.612 109.678 220.642C114.8 210.708 123.672 203.601 133.288 202.329C142.903 201.058 153.026 205.86 159.023 215.048C165.02 224.236 166.488 237.594 162.288 248.142C159.194 255.913 153.494 261.696 147.522 266.401C128.223 281.476 105.077 287.606 82.3418 283.664" fill="#F2F2F2"/>
<path d="M149.515 206.126C141.581 213.95 134.303 222.7 127.785 232.25C117.585 247.144 109.33 263.844 103.31 281.766C102.869 283.074 104.623 283.643 105.059 282.35C114.909 253.222 130.635 227.549 150.797 207.679C151.703 206.786 150.413 205.241 149.515 206.127V206.126Z" fill="white"/>
<path d="M96.9665 128.207C105.133 128.207 111.754 120.191 111.754 110.304C111.754 100.416 105.133 92.4011 96.9665 92.4011C88.7996 92.4011 82.179 100.416 82.179 110.304C82.179 120.191 88.7996 128.207 96.9665 128.207Z" fill="#F2F2F2"/>
<path d="M51.3725 48.5901H153.255V55.3384H64.3787C59.1531 55.3384 53.9787 56.5845 49.1509 59.0055C44.3231 61.4265 39.9365 64.975 36.2414 69.4485C32.5464 73.9219 29.6153 79.2326 27.6156 85.0775C25.6158 90.9223 24.5866 97.1868 24.5866 103.513V180.182H13.4385C12.9457 180.182 12.4731 179.945 12.1247 179.523C11.7762 179.102 11.5805 178.529 11.5804 177.933V96.7648C11.5804 90.4384 12.6097 84.174 14.6094 78.3291C16.6092 72.4843 19.5402 67.1736 23.2353 62.7001C26.9303 58.2267 31.317 54.6781 36.1448 52.2571C40.9726 49.8361 46.147 48.5901 51.3725 48.5901Z" fill="#F2F2F2"/>
<path d="M70.9691 282.401V179.894H95.774V282.401C95.7734 283.09 95.547 283.751 95.1446 284.238C94.7422 284.725 94.1965 284.999 93.6274 285H73.1157C72.5466 284.999 72.001 284.725 71.5985 284.238C71.1961 283.751 70.9698 283.09 70.9691 282.401Z" fill="#3F3D56"/>
<path d="M6.33325 177.872V94.518C6.34563 81.2486 10.7051 68.5269 18.4554 59.1439C26.2056 49.761 36.7136 44.483 47.6741 44.468H152.778V180.76H8.71834C8.086 180.759 7.47977 180.454 7.03263 179.913C6.5855 179.372 6.33398 178.638 6.33325 177.872V177.872ZM151.823 45.623H47.6741C36.9665 45.6377 26.701 50.7939 19.1297 59.9603C11.5583 69.1267 7.29939 81.5548 7.28729 94.518V177.872C7.2877 178.332 7.4386 178.772 7.70689 179.097C7.97517 179.422 8.33893 179.604 8.71834 179.605H151.823V45.623Z" fill="#3F3D56"/>
<path d="M96.9665 119.544C94.6901 119.541 92.5076 118.445 90.8979 116.496C89.2882 114.547 88.3827 111.905 88.3802 109.149V34.6505C88.3798 34.1911 88.2289 33.7507 87.9606 33.4259C87.6923 33.1011 87.3285 32.9184 86.9491 32.9179H53.5579C52.9256 32.917 52.3194 32.6125 51.8722 32.0712C51.4251 31.5299 51.1736 30.7959 51.1729 30.0304V2.88754C51.1736 2.12199 51.4251 1.38804 51.8722 0.846716C52.3194 0.30539 52.9256 0.000886497 53.5579 0H103.168C103.8 0.00087582 104.406 0.305379 104.853 0.846707C105.301 1.38804 105.552 2.12198 105.553 2.88754V109.149C105.55 111.905 104.645 114.547 103.035 116.496C101.425 118.445 99.243 119.541 96.9665 119.544Z" fill="#FFCE51"/>
<path d="M156.594 43.3131C163.79 43.2948 170.697 46.7382 175.796 52.8856C180.895 59.0331 183.769 67.3811 183.784 76.0932V170.983H237.21C239.356 170.978 241.416 172.005 242.937 173.838C244.457 175.672 245.314 178.161 245.319 180.76H129.404V76.0932C129.419 67.3811 132.292 59.0331 137.391 52.8856C142.49 46.7382 149.398 43.2948 156.594 43.3131Z" fill="#3F3D56"/>
<path d="M150.069 97.3491L155.699 125.506L265.833 93.2282L260.203 65.0712C260.135 64.727 259.996 64.4091 259.8 64.1471C259.603 63.8851 259.355 63.6875 259.079 63.5726C258.874 63.4856 258.659 63.4463 258.442 63.4566L194.78 23.5497C194.407 23.3191 193.978 23.2575 193.571 23.376C193.163 23.4946 192.805 23.7854 192.559 24.1961L161.877 75.9949L150.31 95.5279C150.289 95.5621 150.275 95.6014 150.267 95.6431C150.26 95.6847 150.26 95.7278 150.268 95.7694C150.033 96.2438 149.961 96.8113 150.069 97.3491V97.3491Z" fill="white"/>
<path d="M150.268 95.7694C150.273 95.806 150.285 95.841 150.301 95.8723C150.318 95.9036 150.34 95.9306 150.365 95.9518C150.395 95.9766 150.428 95.9937 150.464 96.0022C150.5 96.0107 150.536 96.0104 150.572 96.0012C150.629 95.9826 150.68 95.9403 150.714 95.8815L150.754 95.8149L151.356 94.7952L162.294 76.3356L192.966 24.5487C193.141 24.2552 193.397 24.0475 193.688 23.9631C193.979 23.8787 194.285 23.9233 194.551 24.0889L257.72 63.6866L258.287 64.0428C258.31 64.0545 258.333 64.0644 258.357 64.0727C258.4 64.0632 258.443 64.0582 258.487 64.0576C258.546 64.0336 258.595 63.983 258.625 63.9163C258.64 63.8811 258.65 63.8426 258.653 63.803C258.656 63.7634 258.652 63.7235 258.643 63.6855C258.633 63.6474 258.617 63.6121 258.596 63.5815C258.575 63.5509 258.55 63.5256 258.52 63.507L258.442 63.4566L194.78 23.5497C194.407 23.3191 193.978 23.2575 193.571 23.376C193.163 23.4946 192.805 23.7854 192.559 24.1961L161.877 75.9949L150.31 95.5278C150.289 95.5621 150.275 95.6013 150.267 95.643C150.26 95.6847 150.26 95.7278 150.268 95.7694V95.7694Z" fill="#3F3D56"/>
<path d="M183.345 98.6405L185.796 98.9698L203.991 101.41L216.053 103.027L216.765 103.122L231.816 88.8899L232.393 88.3448L235.948 84.9836L248.595 73.0255L248.671 72.1856L253.169 23.0315C253.231 22.3547 253.068 21.676 252.717 21.1443C252.365 20.6126 251.854 20.2713 251.295 20.1951L191.26 12.1436C190.701 12.0697 190.14 12.267 189.701 12.6923C189.262 13.1176 188.98 13.7363 188.917 14.4128L185.745 49.0849L183.985 68.3077L182.411 85.505L181.681 93.4915L181.468 95.8048C181.407 96.4819 181.571 97.1606 181.922 97.6921C182.274 98.2236 182.786 98.5647 183.345 98.6405V98.6405Z" fill="#E6E6E6"/>
<path d="M199.842 55.5551L225.848 59.0421L235.07 60.2783C235.477 60.3329 235.89 60.2899 236.283 60.1517C236.676 60.0135 237.043 59.7828 237.363 59.4729C237.683 59.1629 237.949 58.7797 238.147 58.3452C238.344 57.9107 238.469 57.4333 238.514 56.9403C238.559 56.4474 238.524 55.9485 238.41 55.4722C238.295 54.9959 238.105 54.5514 237.849 54.1642C237.593 53.7771 237.276 53.4547 236.917 53.2157C236.559 52.9766 236.164 52.8254 235.757 52.7708L224.286 51.2328L200.531 48.0439C199.709 47.9338 198.884 48.2238 198.238 48.8499C197.592 49.476 197.178 50.3871 197.086 51.3828C196.995 52.3785 197.234 53.3773 197.751 54.1597C198.268 54.9421 199.02 55.444 199.842 55.5551Z" fill="white"/>
<path d="M198.362 69.4821C198.429 69.4966 198.496 69.5111 198.564 69.5191L228.752 73.568L233.793 74.2453C234.615 74.3555 235.44 74.0655 236.087 73.4392C236.733 72.8128 237.147 71.9014 237.238 70.9055C237.329 69.9095 237.089 68.9106 236.572 68.1284C236.054 67.3463 235.302 66.845 234.479 66.7348L227.191 65.7587L203.278 62.5507L199.254 62.0108C198.449 61.9021 197.641 62.1766 197 62.7762C196.359 63.3758 195.936 64.2535 195.821 65.2238C195.705 66.1941 195.905 67.1809 196.379 67.9756C196.854 68.7702 197.564 69.3105 198.362 69.4821V69.4821Z" fill="white"/>
<path d="M194.945 81.8315C195.193 82.3287 195.531 82.7502 195.935 83.0633C196.339 83.3763 196.797 83.5724 197.273 83.6364L209.646 85.2955L231.683 88.2512L231.688 88.2497L232.393 88.3448L235.948 84.9836C235.97 84.7283 235.97 84.4709 235.948 84.2155C235.873 83.3581 235.559 82.5574 235.057 81.9458C234.555 81.3342 233.895 80.9484 233.188 80.8522L230.127 80.4404L217.983 78.8135L209.246 77.6403L197.959 76.126C197.381 76.0484 196.796 76.1683 196.271 76.4721C195.746 76.7759 195.302 77.2514 194.988 77.8449C194.674 78.4384 194.504 79.1263 194.497 79.8308C194.489 80.5353 194.644 81.2283 194.945 81.8315L194.945 81.8315Z" fill="white"/>
<path d="M212.324 38.5312L218.795 39.3988L221.653 39.783L225.97 40.3614C226.792 40.4716 227.617 40.1816 228.264 39.5553C228.91 38.9289 229.324 38.0175 229.415 37.0216C229.506 36.0256 229.266 35.0267 228.749 34.2446C228.231 33.4624 227.479 32.9611 226.656 32.8509L213.014 31.0229C212.191 30.9122 211.366 31.2016 210.72 31.8274C210.074 32.4532 209.659 33.3641 209.568 34.3598C209.477 35.3554 209.716 36.3543 210.233 37.1365C210.749 37.9188 211.502 38.4205 212.324 38.5311V38.5312Z" fill="white"/>
<path d="M159.416 59.4439L167.305 98.8956L180.471 101.927L192.65 104.734L205.717 107.744L209.893 108.706C210.137 108.762 210.388 108.754 210.63 108.683C210.872 108.612 211.099 108.48 211.295 108.295L214.644 105.128L216.765 103.122L231.816 88.8899L222.246 41.0298C222.152 40.5536 221.946 40.1206 221.653 39.7829C221.396 39.484 221.081 39.2683 220.737 39.1555C220.393 39.0428 220.031 39.0366 219.685 39.1377L160.979 56.3432C160.432 56.5038 159.96 56.9206 159.667 57.502C159.374 58.0834 159.284 58.7818 159.416 59.4439V59.4439Z" fill="#FFCE51"/>
<path d="M177.505 90.8293C177.7 91.8025 178.206 92.6421 178.912 93.1637C179.618 93.6854 180.467 93.8465 181.271 93.6117L215.718 83.5159C216.522 83.279 217.215 82.6659 217.646 81.8111C218.077 80.9564 218.21 79.9296 218.017 78.9561C218.008 78.9078 217.997 78.8602 217.983 78.8136C217.763 77.875 217.252 77.0759 216.556 76.5837C215.86 76.0916 215.034 75.9446 214.25 76.1736L179.803 86.2694C178.999 86.5059 178.305 87.1189 177.875 87.9738C177.444 88.8287 177.311 89.8557 177.505 90.8293Z" fill="white"/>
<path d="M180.471 101.926L192.65 104.734L218.449 97.1725C219.254 96.9368 219.947 96.324 220.378 95.4688C220.809 94.6137 220.942 93.5863 220.748 92.6126C220.553 91.639 220.047 90.7988 219.34 90.277C218.634 89.7552 217.785 89.5945 216.981 89.8302L182.534 99.926C181.814 100.135 181.18 100.65 180.746 101.376C180.642 101.55 180.55 101.734 180.471 101.926Z" fill="white"/>
<path d="M205.717 107.744L209.892 108.706C210.137 108.762 210.388 108.754 210.63 108.683C210.872 108.612 211.098 108.48 211.295 108.295L214.644 105.127L205.717 107.744Z" fill="white"/>
<path d="M184.446 69.6744C184.641 70.6476 185.147 71.4872 185.853 72.0089C186.56 72.5305 187.408 72.6916 188.212 72.4568L201.554 68.5465C202.358 68.3095 203.051 67.6964 203.482 66.8417C203.913 65.9869 204.046 64.9602 203.853 63.9866C203.749 63.4635 203.553 62.9737 203.278 62.5508C202.909 61.9792 202.411 61.5482 201.846 61.3094C201.28 61.0706 200.669 61.0341 200.086 61.2042L186.744 65.1145C185.94 65.3504 185.246 65.9632 184.815 66.8183C184.384 67.6734 184.251 68.7007 184.446 69.6744V69.6744Z" fill="white"/>
<path d="M192.649 104.734L205.718 107.745L209.892 108.707C210.137 108.762 210.388 108.754 210.63 108.683C210.871 108.613 211.098 108.481 211.294 108.296L214.646 105.128L213.47 105.473L210.987 107.818C210.846 107.95 210.684 108.044 210.512 108.095C210.339 108.145 210.16 108.151 209.985 108.111L206.895 107.4L193.825 104.389L192.649 104.734ZM231.687 88.2521L231.814 88.8884L232.394 88.3428L231.687 88.2521ZM192.649 104.734L205.718 107.745L209.892 108.707C210.137 108.762 210.388 108.754 210.63 108.683C210.871 108.613 211.098 108.481 211.294 108.296L214.646 105.128L213.47 105.473L210.987 107.818C210.846 107.95 210.684 108.044 210.512 108.095C210.339 108.145 210.16 108.151 209.985 108.111L206.895 107.4L193.825 104.389L192.649 104.734ZM192.649 104.734L205.718 107.745L209.892 108.707C210.137 108.762 210.388 108.754 210.63 108.683C210.871 108.613 211.098 108.481 211.294 108.296L214.646 105.128L213.47 105.473L210.987 107.818C210.846 107.95 210.684 108.044 210.512 108.095C210.339 108.145 210.16 108.151 209.985 108.111L206.895 107.4L193.825 104.389L192.649 104.734ZM150.069 97.3491L164.816 171.103C164.926 171.648 165.209 172.118 165.605 172.41C166 172.702 166.475 172.792 166.926 172.661L273.664 141.379C274.114 141.246 274.502 140.903 274.743 140.424C274.985 139.945 275.059 139.37 274.951 138.825L260.203 65.0713C260.135 64.727 259.997 64.4092 259.8 64.1472C259.603 63.8852 259.355 63.6875 259.079 63.5726C258.874 63.4857 258.659 63.4464 258.442 63.4567C258.19 63.4655 257.943 63.5442 257.72 63.6867C257.617 63.7459 257.52 63.8189 257.43 63.9045L248.67 72.1858L235.948 84.2173L231.686 88.2478L231.687 88.2521L231.683 88.2532L216.054 103.025L213.47 105.473L210.987 107.818C210.846 107.95 210.684 108.044 210.512 108.095C210.339 108.145 210.16 108.151 209.985 108.111L206.895 107.4L193.825 104.389L180.745 101.377L152.094 94.776C151.85 94.7174 151.598 94.724 151.356 94.7953C151.03 94.8917 150.734 95.0994 150.503 95.3936C150.415 95.5091 150.336 95.6351 150.268 95.7695C150.033 96.2438 149.961 96.8114 150.069 97.3491V97.3491ZM192.649 104.734L205.718 107.745L209.892 108.707C210.137 108.762 210.388 108.754 210.63 108.683C210.871 108.613 211.098 108.481 211.294 108.296L214.646 105.128L213.47 105.473L210.987 107.818C210.846 107.95 210.684 108.044 210.512 108.095C210.339 108.145 210.16 108.151 209.985 108.111L206.895 107.4L193.825 104.389L192.649 104.734ZM192.649 104.734L205.718 107.745L209.892 108.707C210.137 108.762 210.388 108.754 210.63 108.683C210.871 108.613 211.098 108.481 211.294 108.296L214.646 105.128L213.47 105.473L210.987 107.818C210.846 107.95 210.684 108.044 210.512 108.095C210.339 108.145 210.16 108.151 209.985 108.111L206.895 107.4L193.825 104.389L192.649 104.734ZM192.649 104.734L205.718 107.745L209.892 108.707C210.137 108.762 210.388 108.754 210.63 108.683C210.871 108.613 211.098 108.481 211.294 108.296L214.646 105.128L213.47 105.473L210.987 107.818C210.846 107.95 210.684 108.044 210.512 108.095C210.339 108.145 210.16 108.151 209.985 108.111L206.895 107.4L193.825 104.389L192.649 104.734Z" fill="white"/>
<path d="M192.649 104.734L205.718 107.744L209.892 108.707C210.137 108.762 210.388 108.754 210.63 108.683C210.871 108.612 211.098 108.481 211.294 108.296L214.646 105.128L213.47 105.473L210.987 107.818C210.846 107.95 210.684 108.044 210.512 108.095C210.339 108.145 210.16 108.151 209.985 108.111L206.895 107.4L193.825 104.389L192.649 104.734ZM231.687 88.2521L231.814 88.8884L232.394 88.3428L231.687 88.2521ZM192.649 104.734L205.718 107.744L209.892 108.707C210.137 108.762 210.388 108.754 210.63 108.683C210.871 108.612 211.098 108.481 211.294 108.296L214.646 105.128L213.47 105.473L210.987 107.818C210.846 107.95 210.684 108.044 210.512 108.095C210.339 108.145 210.16 108.151 209.985 108.111L206.895 107.4L193.825 104.389L192.649 104.734ZM192.649 104.734L205.718 107.744L209.892 108.707C210.137 108.762 210.388 108.754 210.63 108.683C210.871 108.612 211.098 108.481 211.294 108.296L214.646 105.128L213.47 105.473L210.987 107.818C210.846 107.95 210.684 108.044 210.512 108.095C210.339 108.145 210.16 108.151 209.985 108.111L206.895 107.4L193.825 104.389L192.649 104.734ZM150.754 95.815L150.819 95.8739C150.83 95.8523 150.848 95.8331 150.863 95.8105C151.007 95.6284 151.187 95.4926 151.386 95.4152C151.584 95.3378 151.795 95.3213 152.001 95.3671L180.472 101.924L192.649 104.734L205.718 107.744L209.892 108.707C210.137 108.762 210.388 108.754 210.63 108.683C210.871 108.612 211.098 108.481 211.294 108.296L214.646 105.128L213.47 105.473L210.987 107.818C210.846 107.95 210.684 108.044 210.512 108.095C210.339 108.145 210.16 108.151 209.985 108.111L206.895 107.4L193.825 104.389L180.745 101.377L152.094 94.776C151.85 94.7174 151.598 94.724 151.356 94.7953L150.754 95.815ZM150.069 97.3491L164.816 171.103C164.926 171.648 165.209 172.118 165.605 172.41C166 172.702 166.475 172.792 166.926 172.661L273.664 141.379C274.114 141.246 274.502 140.903 274.743 140.424C274.985 139.945 275.059 139.37 274.951 138.825L260.203 65.0713C260.135 64.727 259.997 64.4092 259.8 64.1472C259.603 63.8852 259.355 63.6875 259.079 63.5726C258.874 63.4857 258.659 63.4464 258.442 63.4567C258.19 63.4655 257.943 63.5442 257.72 63.6867C257.617 63.7459 257.52 63.8189 257.43 63.9045L248.67 72.1858L235.948 84.2173L231.686 88.2478L231.687 88.2521L231.683 88.2532L216.054 103.025L213.47 105.473L210.987 107.818C210.846 107.95 210.684 108.044 210.512 108.095C210.339 108.145 210.16 108.151 209.985 108.111L206.895 107.4L193.825 104.389L180.745 101.377L152.094 94.776C151.85 94.7174 151.598 94.724 151.356 94.7953C151.03 94.8917 150.734 95.0993 150.503 95.3936C150.415 95.5091 150.336 95.635 150.268 95.7695C150.033 96.2438 149.961 96.8114 150.069 97.3491V97.3491ZM150.555 97.2066C150.512 96.9892 150.509 96.7628 150.547 96.5439C150.585 96.325 150.663 96.1192 150.776 95.9415C150.786 95.9154 150.8 95.8923 150.819 95.8739C150.83 95.8524 150.848 95.8331 150.863 95.8105C151.007 95.6284 151.187 95.4926 151.386 95.4152C151.584 95.3378 151.795 95.3213 152.001 95.3671L180.472 101.924L192.649 104.734L205.718 107.744L209.892 108.707C210.137 108.762 210.388 108.754 210.63 108.683C210.871 108.612 211.098 108.481 211.294 108.296L214.646 105.128L216.766 103.123L231.814 88.8884L232.394 88.3428L235.946 84.9831L248.596 73.0233L257.741 64.3771C257.88 64.2459 258.04 64.152 258.212 64.1016C258.259 64.0875 258.308 64.0778 258.357 64.0727C258.4 64.0633 258.443 64.0583 258.487 64.0577C258.633 64.056 258.778 64.0847 258.916 64.1426C259.113 64.2257 259.29 64.3671 259.431 64.554C259.571 64.7409 259.671 64.9674 259.721 65.2128L274.468 138.966C274.507 139.16 274.514 139.36 274.488 139.557C274.463 139.753 274.406 139.942 274.321 140.112C274.235 140.281 274.123 140.429 273.99 140.546C273.857 140.663 273.706 140.748 273.547 140.794L166.809 172.077C166.487 172.17 166.147 172.105 165.865 171.896C165.582 171.687 165.38 171.35 165.303 170.96L150.555 97.2066ZM192.649 104.734L205.718 107.745L209.892 108.707C210.137 108.762 210.388 108.754 210.63 108.683C210.871 108.613 211.098 108.481 211.294 108.296L214.646 105.128L213.47 105.473L210.987 107.818C210.846 107.95 210.684 108.044 210.512 108.095C210.339 108.145 210.16 108.151 209.985 108.111L206.895 107.4L193.825 104.389L192.649 104.734ZM192.649 104.734L205.718 107.745L209.892 108.707C210.137 108.762 210.388 108.754 210.63 108.683C210.871 108.613 211.098 108.481 211.294 108.296L214.646 105.128L213.47 105.473L210.987 107.818C210.846 107.95 210.684 108.044 210.512 108.095C210.339 108.145 210.16 108.151 209.985 108.111L206.895 107.4L193.825 104.389L192.649 104.734ZM192.649 104.734L205.718 107.745L209.892 108.707C210.137 108.762 210.388 108.754 210.63 108.683C210.871 108.613 211.098 108.481 211.294 108.296L214.646 105.128L213.47 105.473L210.987 107.818C210.846 107.95 210.684 108.044 210.512 108.095C210.339 108.145 210.16 108.151 209.985 108.111L206.895 107.4L193.825 104.389L192.649 104.734Z" fill="#3F3D56"/>
<path d="M245.844 126.888C245.604 125.68 245.769 124.405 246.304 123.344C246.839 122.283 247.7 121.522 248.697 121.228L262.169 117.28C263.166 116.992 264.216 117.195 265.09 117.843C265.964 118.491 266.59 119.532 266.831 120.738C267.072 121.944 266.909 123.216 266.377 124.276C265.844 125.336 264.987 126.098 263.992 126.394L250.52 130.342C249.522 130.634 248.469 130.433 247.592 129.786C246.716 129.138 246.087 128.096 245.844 126.888Z" fill="#FFCE51"/>
<path d="M96.9666 113.192C98.8107 113.192 100.306 111.382 100.306 109.149C100.306 106.916 98.8107 105.106 96.9666 105.106C95.1224 105.106 93.6274 106.916 93.6274 109.149C93.6274 111.382 95.1224 113.192 96.9666 113.192Z" fill="white"/>
</g>
<defs>
<clipPath id="clip0_358_367">
<rect width="275" height="285" fill="white"/>
</clipPath>
</defs>
</svg>
