<svg width="472" height="23" viewBox="0 0 472 23" fill="none" xmlns="http://www.w3.org/2000/svg">
<path d="M3 23V6.1971C3 1.99669 17.5 1.87235 17.5 6.1971C17.5 14.5988 17.5 19.6397 17.5 23" stroke="#263840" stroke-width="6"/>
<path d="M67.5 23V6.1971C67.5 1.99669 82 1.87235 82 6.1971C82 14.5988 82 19.6397 82 23" stroke="#263840" stroke-width="6"/>
<path d="M132 23V6.1971C132 1.99669 146.5 1.87235 146.5 6.1971C146.5 14.5988 146.5 19.6397 146.5 23" stroke="#263840" stroke-width="6"/>
<path d="M196.5 23V6.1971C196.5 1.99669 211 1.87235 211 6.1971C211 14.5988 211 19.6397 211 23" stroke="#263840" stroke-width="6"/>
<path d="M261 23V6.1971C261 1.99669 275.5 1.87235 275.5 6.1971C275.5 14.5988 275.5 19.6397 275.5 23" stroke="#263840" stroke-width="6"/>
<path d="M325.5 23V6.1971C325.5 1.99669 340 1.87235 340 6.1971C340 14.5988 340 19.6397 340 23" stroke="#263840" stroke-width="6"/>
<path d="M390 23V6.1971C390 1.99669 404.5 1.87235 404.5 6.1971C404.5 14.5988 404.5 19.6397 404.5 23" stroke="#263840" stroke-width="6"/>
<path d="M454.5 23V6.1971C454.5 1.99669 469 1.87235 469 6.1971C469 14.5988 469 19.6397 469 23" stroke="#263840" stroke-width="6"/>
</svg>
