<svg width="28" height="28" viewBox="0 0 28 28" fill="none" xmlns="http://www.w3.org/2000/svg">
<circle cx="14" cy="14" r="14" fill="#C4C4C4"/>
<path d="M20.4 3.84C18.52 2.68 16.36 2 14 2V3.84H20.4Z" fill="#ED4C5C"/>
<path d="M14 5.67997H22.64C21.96 4.99997 21.2 4.35997 20.4 3.83997H14V5.67997Z" fill="white"/>
<path d="M14 7.52001H24.12C23.68 6.84001 23.2 6.24001 22.68 5.68001H14V7.52001Z" fill="#ED4C5C"/>
<path d="M14 9.35999H25.08C24.8 8.71999 24.48 8.07999 24.12 7.51999H14V9.35999Z" fill="white"/>
<path d="M14 11.2H25.68C25.52 10.56 25.32 9.96003 25.08 9.36003H14V11.2Z" fill="#ED4C5C"/>
<path d="M14 13.08H25.96C25.92 12.44 25.8 11.84 25.68 11.24H14V13.08Z" fill="white"/>
<path d="M25.96 13.08H14V14H2C2 14.32 2 14.6 2.04 14.92H25.96C26 14.6 26 14.32 26 14C26 13.68 26 13.36 25.96 13.08Z" fill="#ED4C5C"/>
<path d="M2.32001 16.76H25.68C25.84 16.16 25.92 15.56 25.96 14.92H2.04001C2.08001 15.52 2.16001 16.16 2.32001 16.76Z" fill="white"/>
<path d="M2.92 18.6H25.08C25.32 18 25.52 17.4 25.68 16.76H2.32C2.48 17.4 2.68 18 2.92 18.6Z" fill="#ED4C5C"/>
<path d="M3.88 20.44H24.12C24.48 19.84 24.8 19.24 25.08 18.6H2.92C3.2 19.24 3.52 19.84 3.88 20.44Z" fill="white"/>
<path d="M5.32 22.28H22.68C23.2 21.72 23.72 21.08 24.12 20.44H3.88C4.28 21.12 4.8 21.72 5.32 22.28Z" fill="#ED4C5C"/>
<path d="M7.56 24.12H20.44C21.28 23.6 22 22.96 22.68 22.28H5.32C6 23 6.76 23.6 7.56 24.12Z" fill="white"/>
<path d="M14 26C16.36 26 18.56 25.32 20.44 24.12H7.55999C9.43999 25.32 11.64 26 14 26Z" fill="#ED4C5C"/>
<path d="M7.6 3.84C6.76 4.36 6 5 5.32 5.68C4.76 6.24 4.28 6.88 3.88 7.52C3.52 8.12 3.16 8.72 2.92 9.36C2.68 9.96 2.48 10.56 2.32 11.2C2.16 11.8 2.08 12.4 2.04 13.04C2 13.36 2 13.68 2 14H14V2C11.64 2 9.48 2.68 7.6 3.84Z" fill="#428BC1"/>
<path d="M11.2 2.39998L11.4 2.99998H12L11.52 3.39998L11.68 3.99998L11.2 3.63998L10.72 3.99998L10.88 3.39998L10.4 2.99998H11L11.2 2.39998Z" fill="white"/>
<path d="M12.8 4.79998L13 5.39998H13.6L13.12 5.79998L13.28 6.39998L12.8 6.03998L12.32 6.39998L12.48 5.79998L12 5.39998H12.6L12.8 4.79998Z" fill="white"/>
<path d="M9.6 4.79998L9.8 5.39998H10.4L9.91999 5.79998L10.08 6.39998L9.6 6.03998L9.12 6.39998L9.28 5.79998L8.8 5.39998H9.4L9.6 4.79998Z" fill="white"/>
<path d="M11.2 7.19998L11.4 7.79998H12L11.52 8.19998L11.68 8.79998L11.2 8.43998L10.72 8.79998L10.88 8.19998L10.4 7.79998H11L11.2 7.19998Z" fill="white"/>
<path d="M8 7.19998L8.2 7.79998H8.8L8.32 8.19998L8.48 8.79998L8 8.43998L7.52 8.79998L7.68 8.19998L7.2 7.79998H7.8L8 7.19998Z" fill="white"/>
<path d="M4.8 7.19998L5 7.79998H5.6L5.12 8.19998L5.28 8.79998L4.8 8.43998L4.32 8.79998L4.48 8.19998L4 7.79998H4.6L4.8 7.19998Z" fill="white"/>
<path d="M12.8 9.59998L13 10.2H13.6L13.12 10.6L13.28 11.2L12.8 10.84L12.32 11.2L12.48 10.6L12 10.2H12.6L12.8 9.59998Z" fill="white"/>
<path d="M9.6 9.59998L9.8 10.2H10.4L9.91999 10.6L10.08 11.2L9.6 10.84L9.12 11.2L9.28 10.6L8.8 10.2H9.4L9.6 9.59998Z" fill="white"/>
<path d="M6.4 9.59998L6.6 10.2H7.2L6.72 10.6L6.88 11.2L6.4 10.84L5.92 11.2L6.08 10.6L5.6 10.2H6.2L6.4 9.59998Z" fill="white"/>
<path d="M11.2 12L11.4 12.6H12L11.52 13L11.68 13.6L11.2 13.24L10.72 13.6L10.88 13L10.4 12.6H11L11.2 12Z" fill="white"/>
<path d="M8 12L8.2 12.6H8.8L8.32 13L8.48 13.6L8 13.24L7.52 13.6L7.68 13L7.2 12.6H7.8L8 12Z" fill="white"/>
<path d="M4.8 12L5 12.6H5.6L5.12 13L5.28 13.6L4.8 13.24L4.32 13.6L4.48 13L4 12.6H4.6L4.8 12Z" fill="white"/>
<path d="M5.91999 6.39998L6.39999 6.03998L6.87999 6.39998L6.67999 5.79998L7.15999 5.39998H6.55999L6.39999 4.79998L6.19999 5.39998H5.63999L6.11999 5.75998L5.91999 6.39998Z" fill="white"/>
<path d="M2.71999 11.2L3.19999 10.84L3.67999 11.2L3.47999 10.6L3.95999 10.2H3.39999L3.19999 9.59998L2.99999 10.2H2.59999C2.59999 10.24 2.55999 10.28 2.55999 10.32L2.87999 10.56L2.71999 11.2Z" fill="white"/>
</svg>
