<svg width="177" height="68" viewBox="0 0 177 68" fill="none" xmlns="http://www.w3.org/2000/svg">
<path d="M22.9644 1.13235C23.5335 0.416886 24.3979 0 25.3121 0H174C175.657 0 177 1.34315 177 3V65C177 66.6569 175.657 68 174 68H3C1.34315 68 0 66.6578 0 65.001C0 50.9231 0 35.174 0 31.0389C0 30.3605 0.229926 29.711 0.652255 29.1801L22.9644 1.13235Z" fill="#5996EC"/>
<path d="M102.661 20.2581C102.784 20.3813 102.868 20.538 102.903 20.7087C102.938 20.8794 102.921 21.0565 102.856 21.2181L92.5116 47.0794C92.4204 47.3072 92.2682 47.5054 92.0716 47.6522C91.8751 47.799 91.6418 47.8887 91.3976 47.9115C91.1533 47.9343 90.9075 47.8892 90.6872 47.7813C90.4669 47.6734 90.2806 47.5068 90.1489 47.2999L84.4991 38.4199L75.6191 32.7701C75.4117 32.6385 75.2446 32.4522 75.1364 32.2316C75.0282 32.0111 74.983 31.765 75.0058 31.5204C75.0286 31.2758 75.1185 31.0423 75.2656 30.8456C75.4128 30.6489 75.6114 30.4966 75.8396 30.4056L101.701 20.0643C101.862 19.9993 102.04 19.9831 102.21 20.0179C102.381 20.0527 102.538 20.1368 102.661 20.2599V20.2581ZM86.2733 37.9008L91.1818 45.6128L99.596 24.5781L86.2733 37.9008ZM98.3391 23.3212L77.3045 31.7354L85.0182 36.6421L98.3409 23.3212H98.3391Z" fill="white"/>
</svg>
