<svg width="40" height="40" viewBox="0 0 40 40" fill="none" xmlns="http://www.w3.org/2000/svg">
<path fill-rule="evenodd" clip-rule="evenodd" d="M11.615 4.11504C11.7311 3.99863 11.869 3.90627 12.0209 3.84326C12.1728 3.78024 12.3356 3.7478 12.5 3.7478C12.6644 3.7478 12.8272 3.78024 12.9791 3.84326C13.1309 3.90627 13.2689 3.99863 13.385 4.11504L28.385 19.115C28.5014 19.2312 28.5937 19.3691 28.6568 19.521C28.7198 19.6728 28.7522 19.8356 28.7522 20C28.7522 20.1645 28.7198 20.3273 28.6568 20.4791C28.5937 20.631 28.5014 20.7689 28.385 20.885L13.385 35.885C13.1503 36.1198 12.8319 36.2516 12.5 36.2516C12.168 36.2516 11.8497 36.1198 11.615 35.885C11.3803 35.6503 11.2484 35.332 11.2484 35C11.2484 34.6681 11.3803 34.3498 11.615 34.115L25.7325 20L11.615 5.88504C11.4986 5.76892 11.4062 5.63098 11.3432 5.47912C11.2802 5.32726 11.2477 5.16446 11.2477 5.00004C11.2477 4.83562 11.2802 4.67282 11.3432 4.52095C11.4062 4.36909 11.4986 4.23115 11.615 4.11504Z" fill="black"/>
</svg>
