<svg width="30" height="16" viewBox="0 0 30 16" fill="none" xmlns="http://www.w3.org/2000/svg">
<path fill-rule="evenodd" clip-rule="evenodd" d="M0.330878 0.330022C0.435343 0.225255 0.559442 0.142133 0.696069 0.0854186C0.832695 0.0287041 0.979164 -0.000488281 1.12709 -0.000488281C1.27501 -0.000488281 1.42148 0.0287041 1.5581 0.0854186C1.69473 0.142133 1.81883 0.225255 1.92329 0.330022L14.6221 13.0358L27.321 0.330022C27.4255 0.225424 27.5497 0.142452 27.6863 0.0858445C27.8229 0.0292366 27.9693 0.000100732 28.1172 0.000100732C28.2651 0.000100732 28.4115 0.0292366 28.5481 0.0858445C28.6847 0.142452 28.8088 0.225424 28.9134 0.330022C29.018 0.43462 29.1009 0.558795 29.1575 0.695459C29.2141 0.832123 29.2432 0.978599 29.2432 1.12652C29.2432 1.27445 29.2141 1.42092 29.1575 1.55759C29.1009 1.69425 29.018 1.81842 28.9134 1.92302L15.4183 15.423C15.3139 15.5278 15.1898 15.6109 15.0532 15.6676C14.9165 15.7243 14.7701 15.7535 14.6221 15.7535C14.4742 15.7535 14.3277 15.7243 14.1911 15.6676C14.0545 15.6109 13.9304 15.5278 13.8259 15.423L0.330878 1.92302C0.226149 1.81852 0.143058 1.69437 0.0863647 1.5577C0.029671 1.42102 0.000488281 1.2745 0.000488281 1.12652C0.000488281 0.978546 0.029671 0.832023 0.0863647 0.695346C0.143058 0.55867 0.226149 0.434525 0.330878 0.330022V0.330022Z" fill="#263840"/>
</svg>
