<svg width="40" height="40" viewBox="0 0 40 40" fill="none" xmlns="http://www.w3.org/2000/svg">
<path fill-rule="evenodd" clip-rule="evenodd" d="M28.385 4.11504C28.5014 4.23115 28.5937 4.36909 28.6568 4.52095C28.7198 4.67282 28.7522 4.83562 28.7522 5.00004C28.7522 5.16446 28.7198 5.32726 28.6568 5.47912C28.5937 5.63098 28.5014 5.76892 28.385 5.88504L14.2675 20L28.385 34.115C28.6197 34.3498 28.7516 34.6681 28.7516 35C28.7516 35.332 28.6197 35.6503 28.385 35.885C28.1503 36.1198 27.8319 36.2516 27.5 36.2516C27.168 36.2516 26.8497 36.1198 26.615 35.885L11.615 20.885C11.4986 20.7689 11.4062 20.631 11.3432 20.4791C11.2802 20.3273 11.2477 20.1645 11.2477 20C11.2477 19.8356 11.2802 19.6728 11.3432 19.521C11.4062 19.3691 11.4986 19.2312 11.615 19.115L26.615 4.11504C26.7311 3.99863 26.869 3.90627 27.0209 3.84326C27.1728 3.78024 27.3356 3.7478 27.5 3.7478C27.6644 3.7478 27.8272 3.78024 27.9791 3.84326C28.1309 3.90627 28.2689 3.99863 28.385 4.11504Z" fill="black"/>
</svg>
