<svg width="31" height="16" viewBox="0 0 31 16" fill="none" xmlns="http://www.w3.org/2000/svg">
<path fill-rule="evenodd" clip-rule="evenodd" d="M29.8415 15.5465C29.737 15.6513 29.6129 15.7344 29.4763 15.7911C29.3397 15.8478 29.1932 15.877 29.0453 15.877C28.8974 15.877 28.7509 15.8478 28.6143 15.7911C28.4776 15.7344 28.3535 15.6513 28.2491 15.5465L15.5502 2.84075L2.85138 15.5465C2.74682 15.6511 2.62269 15.7341 2.48607 15.7907C2.34946 15.8473 2.20304 15.8764 2.05517 15.8764C1.9073 15.8764 1.76088 15.8473 1.62426 15.7907C1.48765 15.7341 1.36352 15.6511 1.25896 15.5465C1.1544 15.4419 1.07146 15.3177 1.01487 15.1811C0.958284 15.0444 0.929159 14.8979 0.929159 14.75C0.929159 14.6021 0.958285 14.4556 1.01487 14.3189C1.07146 14.1823 1.1544 14.0581 1.25896 13.9535L14.754 0.453502C14.8585 0.348734 14.9826 0.265614 15.1192 0.208899C15.2558 0.152185 15.4023 0.122992 15.5502 0.122992C15.6981 0.122992 15.8446 0.152185 15.9812 0.208899C16.1179 0.265614 16.242 0.348735 16.3464 0.453502L29.8415 13.9535C29.9462 14.058 30.0293 14.1822 30.086 14.3188C30.1427 14.4555 30.1719 14.602 30.1719 14.75C30.1719 14.898 30.1427 15.0445 30.086 15.1812C30.0293 15.3179 29.9462 15.442 29.8415 15.5465Z" fill="#263840"/>
</svg>
