<svg width="20" height="20" viewBox="0 0 20 20" fill="none" xmlns="http://www.w3.org/2000/svg">
<path d="M19 3.75585C18.9148 3.74805 18.8289 3.74805 18.7437 3.75585H1.24372C1.13156 3.75739 1.02014 3.77234 0.912466 3.8003L9.94372 11.7947L19 3.75585Z" fill="#5996EC"/>
<path d="M19.925 4.52808L10.825 12.5836C10.5908 12.7906 10.274 12.9067 9.94375 12.9067C9.61352 12.9067 9.2967 12.7906 9.0625 12.5836L0.04375 4.58919C0.0160246 4.67977 0.00132418 4.77311 0 4.86697V15.9781C0 16.2728 0.131696 16.5554 0.366117 16.7638C0.600537 16.9721 0.918479 17.0892 1.25 17.0892H18.75C19.0815 17.0892 19.3995 16.9721 19.6339 16.7638C19.8683 16.5554 20 16.2728 20 15.9781V4.86697C19.995 4.75123 19.9697 4.63688 19.925 4.52808ZM2.10625 15.9781H1.2375V15.1836L5.78125 11.1781L6.6625 11.9614L2.10625 15.9781ZM18.7375 15.9781H17.8625L13.3062 11.9614L14.1875 11.1781L18.7312 15.1836L18.7375 15.9781Z" fill="#5996EC"/>
</svg>
