<svg width="30" height="30" viewBox="0 0 30 30" fill="none" xmlns="http://www.w3.org/2000/svg">
<path d="M15.6445 10.3125V3.98438H6.79688V26.0156H23.2031V11.543H16.875C16.5487 11.543 16.2357 11.4133 16.0049 11.1826C15.7742 10.9518 15.6445 10.6388 15.6445 10.3125V10.3125ZM15 19.7461C15 19.875 14.8945 19.9805 14.7656 19.9805H9.375C9.24609 19.9805 9.14062 19.875 9.14062 19.7461V18.3398C9.14062 18.2109 9.24609 18.1055 9.375 18.1055H14.7656C14.8945 18.1055 15 18.2109 15 18.3398V19.7461ZM20.8594 14.3555V15.7617C20.8594 15.8906 20.7539 15.9961 20.625 15.9961H9.375C9.24609 15.9961 9.14062 15.8906 9.14062 15.7617V14.3555C9.14062 14.2266 9.24609 14.1211 9.375 14.1211H20.625C20.7539 14.1211 20.8594 14.2266 20.8594 14.3555Z" fill="black" fill-opacity="0.15"/>
<path d="M25.0371 8.45508L18.7324 2.15039C18.5566 1.97461 18.3193 1.875 18.0703 1.875H5.625C5.10645 1.875 4.6875 2.29395 4.6875 2.8125V27.1875C4.6875 27.7061 5.10645 28.125 5.625 28.125H24.375C24.8936 28.125 25.3125 27.7061 25.3125 27.1875V9.12012C25.3125 8.87109 25.2129 8.63086 25.0371 8.45508ZM17.6367 4.03711L23.1504 9.55078H17.6367V4.03711ZM23.2031 26.0156H6.79688V3.98438H15.6445V10.3125C15.6445 10.6388 15.7742 10.9518 16.0049 11.1826C16.2357 11.4133 16.5487 11.543 16.875 11.543H23.2031V26.0156Z" fill="black"/>
<path d="M9.14062 14.3555V15.7617C9.14062 15.8906 9.24609 15.9961 9.375 15.9961H20.625C20.7539 15.9961 20.8594 15.8906 20.8594 15.7617V14.3555C20.8594 14.2266 20.7539 14.1211 20.625 14.1211H9.375C9.24609 14.1211 9.14062 14.2266 9.14062 14.3555ZM14.7656 18.1055H9.375C9.24609 18.1055 9.14062 18.2109 9.14062 18.3398V19.7461C9.14062 19.875 9.24609 19.9805 9.375 19.9805H14.7656C14.8945 19.9805 15 19.875 15 19.7461V18.3398C15 18.2109 14.8945 18.1055 14.7656 18.1055Z" fill="black"/>
</svg>
