<svg width="32" height="32" viewBox="0 0 32 32" fill="none" xmlns="http://www.w3.org/2000/svg">
<path d="M16.0001 0.640015C7.51694 0.640015 0.640137 7.51682 0.640137 16C0.640137 24.4832 7.51694 31.36 16.0001 31.36C24.4833 31.36 31.3601 24.4832 31.3601 16C31.3601 7.51682 24.4833 0.640015 16.0001 0.640015ZM22.2481 13.2224C22.2545 13.3536 22.2561 13.4848 22.2561 13.6128C22.2561 17.6128 19.2145 22.2224 13.6497 22.2224C12.0054 22.2252 10.3953 21.7529 9.01294 20.8624C9.24814 20.8912 9.48974 20.9024 9.73454 20.9024C11.1521 20.9024 12.4561 20.4208 13.4913 19.608C12.8605 19.5956 12.2492 19.3867 11.7427 19.0104C11.2362 18.6342 10.8597 18.1092 10.6657 17.5088C11.1188 17.595 11.5855 17.5769 12.0305 17.456C11.3458 17.3176 10.7301 16.9465 10.2877 16.4059C9.84529 15.8652 9.60351 15.1882 9.60334 14.4896V14.4528C10.0113 14.6784 10.4785 14.816 10.9745 14.832C10.3326 14.4047 9.87819 13.7483 9.70421 12.997C9.53022 12.2458 9.64982 11.4564 10.0385 10.7904C10.7985 11.7248 11.7462 12.4892 12.8202 13.0341C13.8943 13.579 15.0709 13.8923 16.2737 13.9536C16.1208 13.3045 16.1866 12.6231 16.461 12.0152C16.7353 11.4074 17.2027 10.9072 17.7907 10.5924C18.3786 10.2777 19.054 10.166 19.712 10.2747C20.3699 10.3834 20.9735 10.7065 21.4289 11.1936C22.106 11.0597 22.7553 10.8113 23.3489 10.4592C23.1233 11.1602 22.6508 11.7555 22.0193 12.1344C22.6191 12.0622 23.2047 11.9009 23.7569 11.656C23.3513 12.2638 22.8404 12.7943 22.2481 13.2224V13.2224Z" fill="#5996EC"/>
</svg>
