<svg width="72" height="72" viewBox="0 0 72 72" fill="none" xmlns="http://www.w3.org/2000/svg">
<circle cx="36" cy="36" r="36" fill="#F8F8F8"/>
<circle cx="36" cy="36" r="35" stroke="#263840" stroke-opacity="0.2" stroke-width="2"/>
<path d="M32.9008 22C32.7694 21.9998 32.6392 22.0254 32.5178 22.0755C32.3963 22.1256 32.2859 22.1992 32.1928 22.292L22.2928 32.192C22.1053 32.3795 22 32.6338 22 32.899C22 33.1642 22.1053 33.4185 22.2928 33.606C23.2528 34.566 24.4368 34.782 25.2988 34.782C25.6528 34.782 25.9688 34.746 26.2188 34.704L32.4868 40.972C32.3218 41.6368 32.2147 42.3147 32.1668 42.998C32.0748 44.402 32.2308 46.372 33.6068 47.748C33.7943 47.9355 34.0487 48.0408 34.3138 48.0408C34.579 48.0408 34.8333 47.9355 35.0208 47.748L40.6788 42.092L47.0428 48.456C47.4328 48.846 49.4808 50.26 49.8708 49.87C50.2608 49.48 48.8468 47.43 48.4568 47.042L42.0928 40.678L47.7488 35.02C47.9363 34.8325 48.0416 34.5782 48.0416 34.313C48.0416 34.0478 47.9363 33.7935 47.7488 33.606C46.3728 32.23 44.4028 32.072 42.9988 32.166C42.3155 32.2139 41.6376 32.321 40.9728 32.486L34.7048 26.22C34.7571 25.9154 34.7839 25.607 34.7848 25.298C34.7848 24.438 34.5688 23.254 33.6068 22.292C33.4194 22.1051 33.1655 22.0001 32.9008 22V22ZM32.6568 26.224V26.22V26.224ZM32.6568 26.22V26.224C32.5991 26.3999 32.5913 26.5885 32.6344 26.7686C32.6775 26.9487 32.7697 27.1132 32.9008 27.244L39.9708 34.312C40.1022 34.4428 40.2673 34.5345 40.4478 34.5769C40.6283 34.6193 40.817 34.6107 40.9928 34.552H40.9968L41.0248 34.544C41.2151 34.487 41.4072 34.4363 41.6008 34.392C42.1039 34.2746 42.6155 34.1971 43.1308 34.16C43.9748 34.104 44.8028 34.176 45.4808 34.46L34.4608 45.478C34.1788 44.798 34.1068 43.972 34.1628 43.128C34.2138 42.4135 34.3425 41.7066 34.5468 41.02L34.5548 40.994V40.992C34.6139 40.8159 34.6227 40.6268 34.5803 40.4459C34.5379 40.265 34.446 40.0996 34.3148 39.968L27.2428 32.898C27.1066 32.761 26.9337 32.6664 26.7449 32.6255C26.556 32.5847 26.3594 32.5995 26.1788 32.668L25.9868 32.712C25.8128 32.746 25.5708 32.78 25.2988 32.78C25.0708 32.78 24.8388 32.758 24.6128 32.7L32.7028 24.612C32.7608 24.838 32.7828 25.072 32.7828 25.298C32.7818 25.6088 32.7401 25.9181 32.6588 26.218L32.6568 26.22Z" fill="#5996EC"/>
</svg>
