<svg width="36" height="36" viewBox="0 0 36 36" fill="none" xmlns="http://www.w3.org/2000/svg">
<path d="M0 2.25C0 1.65326 0.237053 1.08097 0.65901 0.65901C1.08097 0.237053 1.65326 0 2.25 0L33.75 0C34.3467 0 34.919 0.237053 35.341 0.65901C35.7629 1.08097 36 1.65326 36 2.25V33.75C36 34.3467 35.7629 34.919 35.341 35.341C34.919 35.7629 34.3467 36 33.75 36H2.25C1.65326 36 1.08097 35.7629 0.65901 35.341C0.237053 34.919 0 34.3467 0 33.75V2.25ZM9 2.25V15.75H27V2.25H9ZM27 20.25H9V33.75H27V20.25ZM2.25 2.25V6.75H6.75V2.25H2.25ZM6.75 9H2.25V13.5H6.75V9ZM2.25 15.75V20.25H6.75V15.75H2.25ZM6.75 22.5H2.25V27H6.75V22.5ZM2.25 29.25V33.75H6.75V29.25H2.25ZM33.75 2.25H29.25V6.75H33.75V2.25ZM29.25 9V13.5H33.75V9H29.25ZM33.75 15.75H29.25V20.25H33.75V15.75ZM29.25 22.5V27H33.75V22.5H29.25ZM33.75 29.25H29.25V33.75H33.75V29.25Z" fill="#F4F4F9"/>
</svg>
