<svg width="36" height="36" viewBox="0 0 36 36" fill="none" xmlns="http://www.w3.org/2000/svg">
<path d="M32 4H4C3.46957 4 2.96086 4.21071 2.58579 4.58579C2.21071 4.96086 2 5.46957 2 6V30C2 30.5304 2.21071 31.0391 2.58579 31.4142C2.96086 31.7893 3.46957 32 4 32H32C32.5304 32 33.0391 31.7893 33.4142 31.4142C33.7893 31.0391 34 30.5304 34 30V6C34 5.46957 33.7893 4.96086 33.4142 4.58579C33.0391 4.21071 32.5304 4 32 4ZM4 30V6H32V30H4Z" fill="#F4F4F9"/>
<path d="M8.91992 14C9.51327 14 10.0933 13.8241 10.5866 13.4944C11.08 13.1648 11.4645 12.6962 11.6916 12.1481C11.9186 11.5999 11.978 10.9967 11.8623 10.4147C11.7465 9.83279 11.4608 9.29824 11.0412 8.87868C10.6217 8.45912 10.0871 8.1734 9.50519 8.05765C8.92325 7.94189 8.32005 8.0013 7.77187 8.22836C7.22369 8.45543 6.75516 8.83994 6.42551 9.33329C6.09587 9.82664 5.91992 10.4067 5.91992 11C5.91992 11.7957 6.23599 12.5587 6.7986 13.1213C7.36121 13.6839 8.12427 14 8.91992 14ZM8.91992 9.4C9.23679 9.39802 9.54711 9.49017 9.81154 9.66478C10.076 9.83938 10.2826 10.0886 10.4052 10.3807C10.5279 10.6729 10.561 10.9949 10.5004 11.306C10.4398 11.617 10.2882 11.903 10.0648 12.1278C9.84147 12.3526 9.5564 12.5059 9.24576 12.5685C8.93512 12.631 8.61291 12.5999 8.31996 12.4791C8.02702 12.3583 7.77654 12.1533 7.60028 11.8899C7.42402 11.6266 7.32993 11.3169 7.32992 11C7.33254 10.5791 7.5009 10.1762 7.79852 9.8786C8.09614 9.58098 8.49904 9.41262 8.91992 9.41V9.4Z" fill="#F4F4F9"/>
<path d="M22.7799 15.37L17.3799 20.77L13.3799 16.77C13.1926 16.5837 12.9391 16.4792 12.6749 16.4792C12.4107 16.4792 12.1573 16.5837 11.9699 16.77L5.91992 22.9V25.73L12.7099 18.94L15.9999 22.18L12.2499 25.93H14.9999L23.4499 17.48L29.9999 24V21.18L24.1899 15.37C24.0026 15.1837 23.7491 15.0792 23.4849 15.0792C23.2207 15.0792 22.9673 15.1837 22.7799 15.37Z" fill="#F4F4F9"/>
</svg>
