<svg width="19" height="24" viewBox="0 0 19 24" fill="none" xmlns="http://www.w3.org/2000/svg">
<path d="M6.26315 18.6359C6.47307 18.5129 6.70249 18.3929 6.9514 18.2789C6.74113 18.5925 6.51595 18.8959 6.27665 19.1879C5.8568 19.6934 5.52992 19.9619 5.32449 20.0459C5.30744 20.0531 5.2899 20.0591 5.27201 20.0639C5.25705 20.0431 5.244 20.021 5.23303 19.9979C5.14906 19.8329 5.15206 19.6739 5.29301 19.4579C5.45195 19.2104 5.77133 18.9269 6.26315 18.6359ZM9.9443 16.1654C9.76587 16.2029 9.58893 16.2404 9.4105 16.2824C9.67479 15.7644 9.9248 15.2392 10.1602 14.7074C10.3972 15.1468 10.6524 15.5762 10.9249 15.9944C10.5996 16.0424 10.2712 16.0994 9.9443 16.1654ZM13.7304 17.5739C13.4975 17.386 13.2794 17.1804 13.0782 16.9589C13.42 16.9664 13.7289 16.9919 13.9958 17.0399C14.4711 17.1254 14.6946 17.2604 14.7725 17.3534C14.7971 17.3794 14.811 17.4137 14.8115 17.4494C14.8063 17.5552 14.7754 17.6582 14.7216 17.7494C14.6913 17.8225 14.6428 17.8866 14.5806 17.9354C14.5497 17.9544 14.5132 17.9623 14.4771 17.9579C14.3422 17.9534 14.0903 17.8589 13.7304 17.5739ZM10.3941 10.4549C10.3342 10.8209 10.2322 11.2409 10.0942 11.6984C10.0434 11.5271 9.99891 11.354 9.9608 11.1794C9.84684 10.6499 9.83034 10.2344 9.89182 9.94641C9.9488 9.68091 10.0568 9.57441 10.1857 9.52191C10.2549 9.49142 10.3281 9.4712 10.4031 9.46191C10.4226 9.50691 10.4451 9.59991 10.4511 9.75891C10.4586 9.94191 10.4406 10.1744 10.3941 10.4564V10.4549Z" fill="#DE2D2D"/>
<path fill-rule="evenodd" clip-rule="evenodd" d="M3.97949 0H11.9161C12.3137 8.49561e-05 12.6951 0.158176 12.9762 0.4395L18.5347 6C18.8159 6.28124 18.9739 6.66271 18.974 7.0605V21C18.974 21.7956 18.6581 22.5587 18.0956 23.1213C17.5332 23.6839 16.7705 24 15.9751 24H3.97949C3.18413 24 2.42135 23.6839 1.85895 23.1213C1.29655 22.5587 0.980591 21.7956 0.980591 21V3C0.980591 2.20435 1.29655 1.44129 1.85895 0.87868C2.42135 0.316071 3.18413 0 3.97949 0V0ZM12.2265 2.25V5.25C12.2265 5.64782 12.3845 6.02936 12.6657 6.31066C12.9469 6.59196 13.3282 6.75 13.7259 6.75H16.7248L12.2265 2.25ZM4.2269 20.502C4.36185 20.772 4.57178 21.0165 4.88366 21.1305C5.19405 21.243 5.50144 21.1905 5.75334 21.0855C6.23017 20.8905 6.7055 20.4315 7.14184 19.9065C7.64115 19.305 8.16596 18.516 8.67278 17.6415C9.65121 17.3514 10.6532 17.1476 11.6672 17.0325C12.117 17.607 12.5818 18.102 13.0317 18.4575C13.4515 18.7875 13.9358 19.062 14.4322 19.083C14.7025 19.0964 14.9702 19.0239 15.1969 18.876C15.4293 18.7245 15.6017 18.5055 15.7277 18.252C15.8626 17.9805 15.9451 17.697 15.9346 17.4075C15.9251 17.1221 15.8194 16.8482 15.6347 16.6305C15.2959 16.2255 14.7411 16.0305 14.1953 15.933C13.5332 15.8304 12.8614 15.8052 12.1935 15.858C11.6295 15.0604 11.1377 14.214 10.724 13.329C11.0989 12.339 11.3793 11.403 11.5037 10.638C11.5577 10.311 11.5862 9.999 11.5757 9.717C11.5738 9.43708 11.5088 9.1612 11.3853 8.91C11.3141 8.77137 11.2131 8.65031 11.0893 8.55561C10.9656 8.46091 10.8224 8.39495 10.67 8.3625C10.3672 8.298 10.0553 8.3625 9.76888 8.478C9.20358 8.703 8.90519 9.183 8.79273 9.7125C8.68327 10.2225 8.73275 10.8165 8.86171 11.4165C8.99366 12.0255 9.21858 12.6885 9.50647 13.359C9.04597 14.5047 8.51412 15.6204 7.91405 16.6995C7.1413 16.9427 6.39643 17.267 5.69187 17.667C5.13707 17.997 4.64375 18.387 4.34686 18.8475C4.03197 19.3365 3.93451 19.9185 4.2269 20.502Z" fill="#DE2D2D"/>
</svg>
