<svg width="32" height="36" viewBox="0 0 32 36" fill="none" xmlns="http://www.w3.org/2000/svg">
<path d="M27.325 5.23355C25.8513 3.56782 24.0963 2.24722 22.1623 1.34871C20.2283 0.450198 18.154 -0.00826065 16.0603 4.99585e-05C7.28679 4.99585e-05 0.136615 8.00555 0.128579 17.8335C0.128579 20.9813 0.863887 24.0436 2.25213 26.7548L0 36L8.446 33.5205C10.7825 34.9446 13.4002 35.691 16.0603 35.6918H16.0683C24.8438 35.6918 31.992 27.6863 32 17.8493C32.002 15.5049 31.5898 13.1832 30.7871 11.018C29.9844 8.85283 28.8071 6.88692 27.3229 5.23355H27.325ZM16.0603 32.6723C13.6876 32.6732 11.3585 31.9581 9.31793 30.6023L8.83576 30.2783L3.82521 31.7498L5.16323 26.2756L4.84982 25.7108C3.52347 23.349 2.82199 20.6146 2.82672 17.8245C2.82672 9.66605 8.76745 3.01055 16.0683 3.01055C17.8076 3.00706 19.5303 3.38917 21.1372 4.13486C22.744 4.88054 24.2031 5.97506 25.4304 7.3553C26.662 8.73016 27.6384 10.3645 28.3032 12.1641C28.968 13.9636 29.3081 15.8928 29.3039 17.8403C29.2958 26.028 23.3551 32.6723 16.0603 32.6723ZM23.3229 21.5708C22.9272 21.3481 20.9724 20.2703 20.6047 20.1173C20.2391 19.9711 19.9719 19.8946 19.7107 20.34C19.4435 20.7833 18.6801 21.7936 18.451 22.0838C18.222 22.383 17.9849 22.4168 17.5871 22.1963C17.1914 21.9713 15.9076 21.5033 14.3887 19.9801C13.2034 18.7988 12.4098 17.3363 12.1728 16.893C11.9437 16.4475 12.1507 16.209 12.3496 15.9863C12.5244 15.7883 12.7453 15.4643 12.9442 15.2078C13.1451 14.9513 13.2114 14.7623 13.342 14.4653C13.4726 14.1638 13.4103 13.9073 13.3119 13.6845C13.2114 13.4618 12.4179 11.2635 12.0824 10.377C11.7609 9.5018 11.4334 9.6233 11.1883 9.61205C10.9593 9.5963 10.6921 9.5963 10.4249 9.5963C10.2231 9.60192 10.0246 9.65418 9.84167 9.74982C9.65878 9.84546 9.49552 9.9824 9.36213 10.1521C8.99648 10.5975 7.97388 11.6753 7.97388 13.8735C7.97388 16.0718 9.4003 18.1846 9.6012 18.4838C9.79809 18.7831 12.4018 23.2808 16.3978 25.2158C17.342 25.677 18.0854 25.9493 18.666 26.1563C19.6203 26.4983 20.4822 26.4466 21.1693 26.3363C21.9327 26.2058 23.5218 25.2563 23.8574 24.2146C24.1868 23.1706 24.1868 22.2796 24.0864 22.0928C23.9879 21.9038 23.7207 21.7936 23.3229 21.5708Z" fill="#5996EC"/>
</svg>
